<?xml version="1.0" encoding="UTF-8" standalone="no"?>
<!-- Created with Inkscape (http://www.inkscape.org/) -->

<svg
   xmlns:dc="http://purl.org/dc/elements/1.1/"
   xmlns:cc="http://creativecommons.org/ns#"
   xmlns:rdf="http://www.w3.org/1999/02/22-rdf-syntax-ns#"
   xmlns:svg="http://www.w3.org/2000/svg"
   xmlns="http://www.w3.org/2000/svg"
   xmlns:xlink="http://www.w3.org/1999/xlink"
   xmlns:sodipodi="http://sodipodi.sourceforge.net/DTD/sodipodi-0.dtd"
   xmlns:inkscape="http://www.inkscape.org/namespaces/inkscape"
   width="635.51996"
   height="984"
   id="svg2"
   version="1.1"
   inkscape:version="0.92.1 r15371"
   sodipodi:docname="001.svg"
   inkscape:export-filename="../src.panels/001.png"
   inkscape:export-xdpi="300"
   inkscape:export-ydpi="300">
  <defs
     id="defs4" />
  <sodipodi:namedview
     id="base"
     pagecolor="#ffffff"
     bordercolor="#666666"
     borderopacity="1.0"
     inkscape:pageopacity="0.0"
     inkscape:pageshadow="2"
     inkscape:zoom="0.7754065"
     inkscape:cx="317.75998"
     inkscape:cy="492"
     inkscape:document-units="px"
     inkscape:current-layer="layer1"
     showgrid="false"
     units="in"
     inkscape:window-width="1909"
     inkscape:window-height="999"
     inkscape:window-x="0"
     inkscape:window-y="25"
     inkscape:window-maximized="1"
     borderlayer="true" />
  <metadata
     id="metadata7">
    <rdf:RDF>
      <cc:Work
         rdf:about="">
        <dc:format>image/svg+xml</dc:format>
        <dc:type
           rdf:resource="http://purl.org/dc/dcmitype/StillImage" />
        <dc:title />
      </cc:Work>
    </rdf:RDF>
  </metadata>
  <g
     inkscape:label="Layer 1"
     inkscape:groupmode="layer"
     id="layer1"
     transform="translate(0,-138.51733)">
    <rect
       style="fill:#ffffff;fill-opacity:1;fill-rule:evenodd;stroke:none;stroke-width:1.06666672"
       id="rect3041"
       width="665.90466"
       height="1016.3809"
       x="-13.714285"
       y="128.99355"
       ry="0" />
    <image
       sodipodi:absref="/home/muksihs/Documents/ᏣᎳᎩ/Lessons/Cherokee Language Lessons-1st-edition/comics/ch14/panels.svg/001.png"
       xlink:href="001.png"
       width="621.86664"
       height="905.81335"
       id="image3045"
       x="6.8266602"
       y="177.61066" />
    <text
       xml:space="preserve"
       style="font-style:normal;font-variant:normal;font-weight:500;font-stretch:normal;font-size:12.80000019px;line-height:0%;font-family:CherokeeHandone;-inkscape-font-specification:'CherokeeHandone Medium';text-align:center;letter-spacing:0px;word-spacing:0px;writing-mode:lr-tb;text-anchor:middle;fill:#000000;fill-opacity:1;stroke:#000000;stroke-width:1.06666672;stroke-miterlimit:4;stroke-dasharray:none"
       x="318.12454"
       y="211.18265"
       id="text3011"><tspan
         sodipodi:role="line"
         id="tspan3013"
         x="318.12454"
         y="211.18265"
         style="font-size:33.2114296px;line-height:1;stroke:#000000;stroke-width:1.06666672;stroke-miterlimit:4;stroke-dasharray:none">ᎠᏠᏍᎩ ᏥᏍᏚ</tspan></text>
    <path
       inkscape:connector-curvature="0"
       id="path3873"
       d="m 574.82762,225.13808 v -0.15482 c 0.10314,-0.30956 0.3096,-0.56758 0.61924,-0.77407 0.3096,-0.20633 0.61924,-0.25794 0.92888,-0.1548 0.3612,0.0516 0.64503,0.23227 0.85146,0.54184 0.20639,0.30969 0.28381,0.6451 0.23223,1.00628 -0.46448,2.21903 -0.8257,5.10885 -1.08369,8.66948 -0.41285,5.41847 -0.64507,8.43729 -0.69666,9.05651 -0.15482,1.44496 -0.46445,3.25109 -0.92887,5.41843 -0.51607,2.63183 -0.85149,4.41217 -1.00628,5.34102 -0.10326,0.51607 -0.23225,1.65135 -0.38703,3.40587 -0.15484,1.54814 -0.33544,2.78663 -0.54185,3.71548 -0.67087,2.99306 -2.16738,5.08302 -4.48955,6.2699 -2.42539,1.2385 -4.46376,1.49653 -6.11509,0.77407 -1.03208,-0.46443 -1.83195,-1.70293 -2.39958,-3.7155 -0.36122,-1.34168 -0.64505,-3.12204 -0.85146,-5.34101 -0.15482,-1.4965 -0.28383,-3.35424 -0.38704,-5.57325 -0.10325,-2.27054 -0.1548,-3.45743 -0.1548,-3.56066 -0.0516,-0.56764 -0.28383,-2.32217 -0.69667,-5.26363 -0.36121,-2.9414 -0.64504,-5.34098 -0.85146,-7.19877 -0.30961,-3.09619 -0.46443,-5.59898 -0.46443,-7.50838 0,-1.13524 0.0516,-2.0899 0.15482,-2.86403 0.1548,-1.03202 0.43863,-1.78027 0.85145,-2.24478 0.72246,-0.9804 2.01256,-1.59967 3.87032,-1.85773 1.34168,-0.15477 2.99301,-0.12898 4.95397,0.0774 3.30266,0.41289 6.16667,1.05795 8.59209,1.93515"
       style="font-style:normal;font-variant:normal;font-weight:500;font-stretch:normal;font-size:329.85540771px;line-height:100%;font-family:Cherokeehandlines;-inkscape-font-specification:'Cherokeehandlines Medium';text-align:center;letter-spacing:0px;word-spacing:0px;writing-mode:lr-tb;text-anchor:middle;fill:#d40000;fill-opacity:1;stroke:#000000;stroke-width:2.13333344;stroke-miterlimit:4;stroke-dasharray:none" />
    <path
       inkscape:connector-curvature="0"
       id="path3871"
       d="m 568.63511,274.29093 c -1.59972,-0.67083 -2.96724,-0.90306 -4.1025,-0.69665 -1.08369,0.20641 -1.78035,0.82568 -2.08996,1.85774 -0.36125,1.08369 -0.20643,2.21899 0.46442,3.40588 0.72247,1.18688 1.85774,1.93513 3.40588,2.24478 0.98046,0.25801 1.83192,0.0774 2.5544,-0.54185 0.72244,-0.61926 1.13526,-1.47073 1.2385,-2.5544 0.15478,-1.54812 -0.33544,-2.78661 -1.47074,-3.7155"
       style="font-style:normal;font-variant:normal;font-weight:500;font-stretch:normal;font-size:329.85540771px;line-height:100%;font-family:Cherokeehandlines;-inkscape-font-specification:'Cherokeehandlines Medium';text-align:center;letter-spacing:0px;word-spacing:0px;writing-mode:lr-tb;text-anchor:middle;fill:#d40000;fill-opacity:1;stroke:none;stroke-width:1.06666672" />
    <path
       inkscape:connector-curvature="0"
       id="path3869"
       d="m 572.27321,274.91018 c 0.41282,1.08369 0.56763,2.21898 0.46444,3.40587 -0.20643,1.70294 -0.95468,3.12203 -2.24476,4.25733 -1.23853,1.13529 -2.83826,1.52233 -4.7992,1.16111 -2.27059,-0.51606 -3.94771,-1.70296 -5.0314,-3.5607 -1.08369,-1.85774 -1.3417,-3.68968 -0.77404,-5.49582 0.61924,-2.06415 2.01255,-3.30265 4.17993,-3.7155 0.51603,-0.10325 1.03207,-0.129 1.54812,-0.0774 0.30962,-0.20641 0.64502,-0.28382 1.00627,-0.23222 1.34169,0.25802 2.47698,0.72246 3.40586,1.39331 0.61924,0.25802 1.2385,0.56766 1.85776,0.92888 0.3096,0.20641 0.49022,0.49024 0.54184,0.85146 0.10315,0.36123 0.0773,0.69665 -0.0774,1.00628 -0.0516,0 -0.0774,0.0258 -0.0774,0.0774"
       style="font-style:normal;font-variant:normal;font-weight:500;font-stretch:normal;font-size:329.85540771px;line-height:100%;font-family:Cherokeehandlines;-inkscape-font-specification:'Cherokeehandlines Medium';text-align:center;letter-spacing:0px;word-spacing:0px;writing-mode:lr-tb;text-anchor:middle;fill:#d40000;fill-opacity:1;stroke:#000000;stroke-width:2.13333344;stroke-miterlimit:4;stroke-dasharray:none" />
    <path
       inkscape:connector-curvature="0"
       id="path3857"
       d="m 480.17933,263.06706 c 0.25801,0 1.10948,0 2.55439,0 1.49652,-0.0516 2.68341,-0.0774 3.56069,-0.0774 1.54812,3e-5 2.78659,0.0516 3.71548,0.15482 0.56764,0.0516 1.03208,0.12901 1.39331,0.23222 0.61923,0.15484 1.08369,0.41285 1.39331,0.77405 0.77405,0.92891 1.16108,2.21899 1.1611,3.87031 -0.0516,0.46445 -0.10325,1.08369 -0.1548,1.85774 l -0.23223,1.62554 c -0.10325,1.08369 -0.0516,1.78034 0.15481,2.08996 0.15481,0.36122 0.67084,0.54185 1.54811,0.54185 h 0.38704 0.46443 0.46446 l 0.85146,-0.0774 c 1.4965,-0.82566 2.27054,-2.735 2.32217,-5.72806 0.0515,-1.03206 -0.0258,-2.45115 -0.2322,-4.25732 -0.15484,-1.96094 -0.23226,-3.22523 -0.23224,-3.79288 v -1.16111 c -2e-5,-0.4128 -0.0258,-0.85145 -0.0774,-1.3159 0,-0.51603 0,-0.92886 0,-1.2385 -0.0516,-1.5481 -0.0258,-2.8382 0.0774,-3.87031 0.3096,-3.09621 1.41911,-7.04392 3.32847,-11.84311 1.96092,-4.79915 3.89608,-8.41142 5.80544,-10.83686 1.29008,-1.59968 3.25103,-2.94138 5.88286,-4.02512 2.68339,-1.08362 5.59901,-1.83188 8.7469,-2.24477 2.88977,-0.46439 5.8312,-0.54178 8.82429,-0.23223 3.04459,0.30969 5.41838,1.03213 7.12136,2.16738 1.29005,0.82572 2.52853,1.9352 3.71549,3.32846 1.18683,1.39337 2.0899,2.78667 2.70921,4.17994 0.7224,1.44496 1.23843,4.28315 1.54812,8.51466 0.30958,3.97354 0.43857,8.20508 0.38704,12.69461 -0.0517,4.79919 -0.33551,8.9533 -0.85147,12.46236 -0.20648,1.85774 -0.49031,3.43167 -0.85147,4.72178 -0.41289,1.44491 -0.90313,2.50279 -1.47072,3.17363 -2.06422,2.3738 -4.87664,3.94773 -8.43725,4.72178 -3.50914,0.82567 -7.12141,1.13529 -10.83686,0.92887 -0.20646,0 -1.65138,0.10326 -4.33474,0.30962 -2.21901,0.15482 -3.87034,0 -4.95398,-0.46442 -0.36127,-0.20643 -0.72249,-0.54185 -1.08369,-1.0063 -0.20644,-0.30962 -0.43866,-0.69666 -0.69665,-1.16108 -0.41288,-0.82566 -0.8257,-1.83195 -1.2385,-3.01885 -0.36125,-1.08367 -0.64508,-2.14155 -0.85147,-3.17363 -0.10325,-0.46443 -0.18065,-0.87728 -0.2322,-1.2385 0.10315,1.96097 0.15476,3.40586 0.15481,4.33474 -5e-5,0.87727 -0.0516,1.59972 -0.15481,2.16735 -0.10325,0.82568 -0.33548,1.41913 -0.69666,1.78035 -0.46447,0.46443 -1.26433,0.87728 -2.39961,1.2385 -0.87728,0.25802 -2.01256,0.49024 -3.40585,0.69666 -2.63183,0.41282 -5.59905,0.61923 -8.90171,0.61923 -3.35427,0.0516 -6.32149,-0.12899 -8.90167,-0.54182 -1.39334,-0.20643 -2.52861,-0.43864 -3.40589,-0.69665 -1.1353,-0.41286 -1.93516,-0.9031 -2.39959,-1.47073 -1.18689,-1.44491 -1.88355,-3.74129 -2.08996,-6.88913 v -6.42471 c -0.36123,-0.30962 -0.54184,-0.69665 -0.54184,-1.16111 0,-0.36119 0.1548,-0.64502 0.46442,-0.85145 0.25804,-0.258 0.56766,-0.38702 0.92889,-0.38702"
       style="font-style:normal;font-variant:normal;font-weight:500;font-stretch:normal;font-size:329.85540771px;line-height:100%;font-family:Cherokeehandlines;-inkscape-font-specification:'Cherokeehandlines Medium';text-align:center;letter-spacing:0px;word-spacing:0px;writing-mode:lr-tb;text-anchor:middle;fill:#d40000;fill-opacity:1;stroke:#000000;stroke-width:2.13333344;stroke-miterlimit:4;stroke-dasharray:none" />
    <path
       inkscape:connector-curvature="0"
       id="path3865"
       d="m 528.48071,271.65913 h 0.0774 c 0.56762,0.10325 1.47068,0 2.70923,-0.30963 0.56759,-0.1548 1.16104,-0.87724 1.78034,-2.16738 0.6708,-1.39328 1.18683,-3.07042 1.54813,-5.03139 0.30957,-1.96092 0.36117,-3.63806 0.15481,-5.03139 -0.0516,-0.61922 -0.15488,-1.10946 -0.30963,-1.47071 l -0.23222,-0.30961 c -0.10325,0 -0.43869,-0.0258 -1.00627,-0.0774 -0.61931,2e-5 -1.39339,0.0258 -2.3222,0.0774 -1.70297,0.10325 -3.92195,0.28383 -6.65693,0.54181 -5.00562,0.46448 -8.7727,0.8773 -11.30129,1.23851 -0.61925,0.10325 -1.00629,0.33545 -1.16107,0.69665 -0.30965,0.56766 -0.46446,1.78037 -0.46443,3.63809 -3e-5,1.29012 0.0516,3.25107 0.1548,5.88286 0.10315,-0.82565 0.54181,-1.67712 1.3159,-2.5544 0.61921,-0.67084 1.39329,-1.34169 2.32218,-2.01255 2.06413,-1.44491 3.81867,-2.21896 5.26363,-2.32219 4.17988,-0.3612 6.94068,0.18063 8.28244,1.62553 1.03205,1.1353 1.21264,2.81244 0.54185,5.03141 -0.0516,0.1548 -0.15486,0.46444 -0.30962,0.92885 -0.10326,0.46445 -0.18067,0.79988 -0.23223,1.00629 -0.0516,0.25802 -0.10325,0.46444 -0.15481,0.61925"
       style="font-style:normal;font-variant:normal;font-weight:500;font-stretch:normal;font-size:329.85540771px;line-height:100%;font-family:Cherokeehandlines;-inkscape-font-specification:'Cherokeehandlines Medium';text-align:center;letter-spacing:0px;word-spacing:0px;writing-mode:lr-tb;text-anchor:middle;fill:#ffffff;fill-opacity:1;stroke:#000000;stroke-width:2.13333344;stroke-miterlimit:4;stroke-dasharray:none" />
    <path
       inkscape:connector-curvature="0"
       id="path3861"
       d="m 510.29029,248.90174 v -0.0774 c 0.10315,-0.4128 0.36121,-1.78032 0.77405,-4.10253 0.36121,-1.90932 0.72242,-3.45744 1.08369,-4.64436 1.23846,-3.97347 3.22522,-6.50207 5.96028,-7.58579 2.58016,-1.03204 5.34097,-1.47068 8.28244,-1.31592 3.61223,0.15486 6.26985,1.26436 7.97282,3.32847 0.30958,0.41288 0.59341,0.90312 0.85147,1.47072 0.30958,0.56769 0.51599,1.05793 0.61924,1.47071 0.15477,0.36127 0.33538,0.90311 0.54185,1.62554 0.20637,0.72248 0.30957,1.10952 0.30964,1.16107 0.56758,1.8578 0.903,3.07048 1.00627,3.63809 0.36118,1.80618 0.28376,3.2511 -0.23222,4.33475 -0.15486,0.41286 -0.51611,0.72248 -1.08369,0.92887 -0.25807,0.10325 -0.5935,0.20644 -1.00627,0.30962 -0.67092,0.15484 -1.65139,0.30967 -2.94143,0.46443 -1.8578,0.20646 -4.69601,0.46448 -8.51468,0.77407 -7.43102,0.56766 -12.23019,0.85149 -14.39753,0.85146 -0.36124,3e-5 -0.67089,-0.12897 -0.92887,-0.38703 -0.25805,-0.25799 -0.38706,-0.56761 -0.38702,-0.92886 -4e-5,-0.36119 0.12897,-0.67084 0.38702,-0.92887 0.25798,-0.258 0.56763,-0.38702 0.92887,-0.38704 h 0.77407"
       style="font-style:normal;font-variant:normal;font-weight:500;font-stretch:normal;font-size:329.85540771px;line-height:100%;font-family:Cherokeehandlines;-inkscape-font-specification:'Cherokeehandlines Medium';text-align:center;letter-spacing:0px;word-spacing:0px;writing-mode:lr-tb;text-anchor:middle;fill:#ffffff;fill-opacity:1;stroke:#000000;stroke-width:2.13333344;stroke-miterlimit:4;stroke-dasharray:none" />
    <path
       inkscape:connector-curvature="0"
       id="path3855"
       d="m 441.91655,250.37247 v 0.1548 0.15481 c -0.15483,0.92891 -0.61926,1.47075 -1.39331,1.62554 -0.46446,0.15483 -0.87728,0.0516 -1.2385,-0.30965 -0.15481,-0.15478 -0.28383,-0.33538 -0.38703,-0.54184 -0.0516,-0.15476 -0.0774,-0.30959 -0.0774,-0.46443 v -0.85147 c -2e-5,-0.516 0.0258,-1.23847 0.0774,-2.16734 0.1548,-1.75452 0.30962,-3.09623 0.46444,-4.02512 0.51604,-3.09623 1.18688,-5.49581 2.01256,-7.19879 1.34167,-2.94137 3.27683,-4.72173 5.80546,-5.34101 4.95395,-1.29005 9.80473,0.43869 14.55234,5.18621 0.25799,0.25805 0.61921,0.74831 1.08369,1.47073 0.20636,0.41286 0.38699,0.67088 0.54185,0.77404 0.10314,0.10326 0.20636,0.15485 0.30961,0.15481 h 0.15481 c 0.10315,4e-5 0.28378,4e-5 0.54185,0 0.25796,-0.0515 0.54179,-0.10315 0.85147,-0.15481 1.75448,-0.15476 2.91558,-0.79981 3.48327,-1.93515 0.61919,-1.13526 0.5934,-2.63177 -0.0774,-4.48955 -0.92891,-2.58016 -2.88985,-4.46369 -5.88286,-5.65063 -2.94145,-1.23846 -6.45054,-1.75449 -10.52722,-1.54812 -3.92193,0.15485 -7.61163,0.90311 -11.06905,2.24477 -3.4575,1.34176 -5.96028,2.96726 -7.5084,4.87658 -2.63182,3.40591 -3.99934,8.6179 -4.10254,15.63604 0,1.75454 0.0774,4.77337 0.23223,9.05649 0.1548,3.97353 0.18061,6.81175 0.0774,8.51466 -0.36125,6.81174 -0.56766,10.65624 -0.61927,11.53352 0.51603,-0.0516 1.1869,-0.10326 2.01258,-0.15482 0.36121,0 0.95466,0 1.78032,0 0.87728,-0.0516 1.54812,-0.0774 2.01256,-0.0774 1.4449,-0.0516 2.52859,-0.15481 3.25105,-0.30962 0.36123,-0.10325 0.69663,-0.20641 1.00628,-0.30962 0.0516,-0.20641 0.0774,-0.51603 0.0774,-0.92889 v -0.85145 -0.69666 c 0.0516,-0.56764 0.0774,-1.49652 0.0774,-2.78662 0,-1.34168 0.0258,-2.52858 0.0774,-3.56067 0.10314,-1.03208 0.2322,-2.01254 0.38703,-2.94143 0.61924,-3.71548 2.34795,-6.47631 5.1862,-8.28246 l 0.77405,-0.54185 c 0.25802,-0.20639 0.46443,-0.3612 0.61927,-0.46442 0.516,-0.258 1.21266,-0.46441 2.08996,-0.61925 4.43792,-0.61924 7.94698,1.10951 10.52721,5.18621 2.21894,3.45748 3.14782,7.27616 2.78662,11.4561 -2e-5,0.1548 -0.25806,1.4449 -0.77407,3.87028 -0.15483,0.77407 -0.25803,1.36752 -0.30962,1.78035 0.67082,-0.15481 1.16106,-0.2322 1.47073,-0.2322 0.4128,0 1.03203,0.0258 1.85774,0.0773 0.82562,0.0516 1.41907,0.0774 1.78034,0.0774 1.39326,0.0516 2.42536,-0.0258 3.09624,-0.23222 0.15476,-0.20641 0.25797,-0.38704 0.30962,-0.54185 0.20639,-0.51603 0.3612,-1.2385 0.46446,-2.16736 0.20635,-1.85774 0.15476,-4.28313 -0.15484,-7.27617 -0.25806,-2.63181 -0.61929,-5.1862 -1.08367,-7.6632 -0.46447,-2.47698 -0.87732,-4.15412 -1.2385,-5.03139 -0.61928,-1.5481 -1.65137,-2.91562 -3.09624,-4.10254 -2.63185,-2.16734 -5.9603,-3.35423 -9.98539,-3.56067 -4.02515,-0.20639 -7.48261,0.64508 -10.37241,2.5544 -0.10326,0.10325 -0.46445,0.41286 -1.08369,0.92887 l -0.69665,0.54185 -0.15481,0.15482"
       style="font-style:normal;font-variant:normal;font-weight:500;font-stretch:normal;font-size:329.85540771px;line-height:100%;font-family:Cherokeehandlines;-inkscape-font-specification:'Cherokeehandlines Medium';text-align:center;letter-spacing:0px;word-spacing:0px;writing-mode:lr-tb;text-anchor:middle;fill:#d40000;fill-opacity:1;stroke:none;stroke-width:1.06666672" />
    <path
       inkscape:connector-curvature="0"
       id="path3853"
       d="m 426.59014,279.0901 c 0,-1.65133 0.20644,-6.21826 0.61927,-13.70087 0.10314,-1.59969 0.0773,-4.36053 -0.0774,-8.28245 -0.15482,-4.2831 -0.2322,-7.35353 -0.2322,-9.21131 0.1548,-7.58577 1.72871,-13.288 4.72174,-17.10673 1.80614,-2.32215 4.61858,-4.23149 8.43728,-5.72806 3.76708,-1.49647 7.76638,-2.32214 11.99795,-2.477 4.48952,-0.20636 8.46301,0.38708 11.92052,1.78035 3.56065,1.44496 5.93442,3.81873 7.12136,7.12136 0.92884,2.58023 0.92884,4.79922 0,6.6569 -1.03213,2.0126 -2.94148,3.12208 -5.72805,3.32847 l -0.30962,0.0774 c -0.25806,0.0516 -0.51608,0.0774 -0.77407,0.0773 h -0.77405 c -0.25806,5e-5 -0.54189,-0.0515 -0.85146,-0.15481 -0.30967,-0.15478 -0.5935,-0.3096 -0.85149,-0.46443 -0.46445,-0.3612 -0.9031,-0.87723 -1.3159,-1.54812 -0.30966,-0.56761 -0.51607,-0.90304 -0.61923,-1.0063 -4.02515,-4.02507 -8.05027,-5.54738 -12.07536,-4.56694 -1.70295,0.46448 -3.07045,1.80619 -4.10252,4.02512 -0.67086,1.49654 -1.23852,3.66392 -1.70293,6.5021 -0.10325,0.51607 -0.20643,1.41915 -0.30964,2.70921 l 0.77408,-0.54183 c 3.35423,-2.21896 7.32774,-3.19942 11.92052,-2.94143 4.59274,0.20643 8.43723,1.57395 11.53352,4.10251 1.75448,1.44494 3.04458,3.17368 3.87031,5.18621 0.41278,0.98051 0.85141,2.78664 1.31589,5.41843 0.51598,2.5802 0.90302,5.23782 1.16108,7.97282 0.3096,3.14784 0.36121,5.72805 0.15482,7.7406 -0.15486,1.23849 -0.38706,2.21898 -0.69666,2.94143 -0.41288,1.08369 -1.05792,1.75456 -1.93513,2.01257 -0.92893,0.30961 -2.24482,0.43862 -3.94773,0.38703 -0.36127,-2e-5 -0.95472,-0.0258 -1.78032,-0.0774 -0.82572,-0.0516 -1.41915,-0.0774 -1.78034,-0.0774 -0.10326,0 -0.20647,0 -0.30963,0 -0.0516,0.0516 -0.18067,0.0774 -0.38704,0.0774 -0.15485,0.0516 -0.33545,0.10326 -0.54184,0.15482 -0.9805,0.20641 -1.78036,0.0516 -2.39958,-0.46443 -0.36127,-0.30962 -0.54187,-0.74827 -0.54185,-1.31592 v -0.92886 l 0.46443,-2.24478 0.69666,-3.48327 c 0.30959,-3.66387 -0.46448,-6.94074 -2.32217,-9.83058 -2.01259,-3.14782 -4.69601,-4.48953 -8.05024,-4.02512 -0.51606,0.0516 -0.8773,0.12904 -1.08369,0.23222 -0.0516,0.0516 -0.18063,0.15484 -0.38704,0.30962 -0.36125,0.25804 -0.67087,0.46448 -0.92885,0.61927 -2.16741,1.44494 -3.50909,3.6381 -4.02512,6.57951 -0.15484,0.82567 -0.25805,1.72874 -0.30962,2.7092 -0.0516,0.92889 -0.0774,2.03839 -0.0774,3.32847 0,1.2385 -0.0258,2.21898 -0.0774,2.94143 v 0.61925 0.85147 c -2e-5,0.87726 -0.12904,1.54812 -0.38703,2.01256 -0.36125,0.82567 -1.29014,1.3933 -2.78663,1.70292 -0.87728,0.15481 -2.11577,0.28383 -3.71549,0.38704 -0.41283,0 -1.05788,0 -1.93516,0 -0.82566,0.0516 -1.4191,0.0774 -1.78032,0.0774 -1.1353,0.0516 -1.93516,0.12899 -2.39959,0.2322 -0.25803,0.41282 -0.61926,0.61925 -1.08369,0.61925 -0.36124,0 -0.67087,-0.12901 -0.92888,-0.38703 -0.25802,-0.25801 -0.38703,-0.56765 -0.38703,-0.92888"
       style="font-style:normal;font-variant:normal;font-weight:500;font-stretch:normal;font-size:329.85540771px;line-height:100%;font-family:Cherokeehandlines;-inkscape-font-specification:'Cherokeehandlines Medium';text-align:center;letter-spacing:0px;word-spacing:0px;writing-mode:lr-tb;text-anchor:middle;fill:#d40000;fill-opacity:1;stroke:#000000;stroke-width:2.13333344;stroke-miterlimit:4;stroke-dasharray:none" />
    <path
       inkscape:connector-curvature="0"
       id="path3851"
       d="m 388.62487,240.69669 c 0.3096,-0.20636 0.64504,-0.28378 1.00631,-0.2322 0.15476,0.0516 0.61921,0.0774 1.39328,0.0774 0.4644,-0.0515 0.77405,-0.0773 0.92888,-0.0774 0.20639,2e-5 0.4128,0.0258 0.61927,0.0774 h 1.3933 c 2.32214,5e-5 5.05714,-0.0258 8.20503,-0.0774 3.09622,-0.0516 5.77961,-0.12898 8.05024,-0.23223 1.13525,-0.0515 2.03832,-0.10315 2.7092,-0.15481 0.36118,4e-5 0.6192,-0.0258 0.77408,-0.0774 0.15476,-0.15476 0.28375,-0.41278 0.38703,-0.77405 0.20634,-0.72242 0.36117,-1.59967 0.46442,-2.63181 0.10315,-1.03204 0.10315,-1.8835 0,-2.55438 -0.0516,-0.30958 -0.10325,-0.54181 -0.1548,-0.69667 h -0.69665 -2.3222 c -1.44496,0.0516 -3.68973,0.18065 -6.73432,0.38704 -7.43102,0.51608 -11.35291,0.77409 -11.76572,0.77405 -0.15485,4e-5 -0.67088,4e-5 -1.54812,0 -0.8773,-0.0515 -1.57395,-0.0773 -2.08996,-0.0774 -0.77409,2e-5 -1.39333,0.0258 -1.85776,0.0774 -0.30964,0.0516 -0.54187,0.12907 -0.69666,0.23223 -0.10326,0.15485 -0.15483,0.38706 -0.15481,0.69665 -2e-5,0.61928 0.0774,1.36755 0.23223,2.24478 0.15478,0.8773 0.3612,1.62555 0.61924,2.24477 0.10315,0.20646 0.25799,0.46447 0.46445,0.77405 h 0.46442 0.30962"
       style="font-style:normal;font-variant:normal;font-weight:500;font-stretch:normal;font-size:329.85540771px;line-height:100%;font-family:Cherokeehandlines;-inkscape-font-specification:'Cherokeehandlines Medium';text-align:center;letter-spacing:0px;word-spacing:0px;writing-mode:lr-tb;text-anchor:middle;fill:#d40000;fill-opacity:1;stroke:none;stroke-width:1.06666672" />
    <path
       inkscape:connector-curvature="0"
       id="path3849"
       d="m 391.10188,243.17369 c -0.61929,0.0516 -1.08371,0.10325 -1.39331,0.15481 -0.61929,0.0516 -1.13532,0.0516 -1.54812,0 -0.61929,4e-5 -1.10951,-0.10315 -1.47073,-0.30962 -0.67086,-0.3096 -1.2385,-0.98044 -1.70293,-2.01254 -0.36124,-0.82564 -0.64507,-1.75452 -0.85146,-2.78663 -0.20643,-1.08365 -0.28385,-2.06413 -0.2322,-2.94143 0.0516,-1.18685 0.38698,-2.03831 1.00627,-2.55442 0.4644,-0.36117 1.13525,-0.61919 2.01255,-0.77405 0.61921,-0.10314 1.36747,-0.15476 2.24477,-0.1548 0.56762,4e-5 1.29008,0.0258 2.16738,0.0774 0.87724,4e-5 1.39327,4e-5 1.54812,0 0.3612,4e-5 4.23149,-0.25798 11.61091,-0.77405 2.99298,-0.20637 5.26355,-0.33539 6.81174,-0.38704 h 2.47698 c 0.82563,4e-5 1.41908,0.0774 1.78035,0.23222 0.8256,0.36127 1.34165,1.23853 1.54811,2.63179 0.15477,0.92893 0.18056,2.01262 0.0774,3.25107 -0.10325,1.23853 -0.30969,2.32222 -0.61926,3.25105 -0.15486,0.51608 -0.36127,0.95472 -0.61924,1.3159 -0.30969,0.51607 -0.67091,0.87732 -1.08369,1.08369 -0.20646,0.0516 -0.46447,0.10325 -0.77405,0.1548 -0.25808,6e-5 -0.5677,0.0258 -0.92888,0.0774 -0.67091,0.0516 -1.62558,0.10326 -2.86404,0.15482 -2.37381,0.10325 -5.05722,0.18064 -8.05022,0.23222 -3.09627,0.0516 -5.85708,0.0774 -8.28244,0.0774 h -2.86403"
       style="font-style:normal;font-variant:normal;font-weight:500;font-stretch:normal;font-size:329.85540771px;line-height:100%;font-family:Cherokeehandlines;-inkscape-font-specification:'Cherokeehandlines Medium';text-align:center;letter-spacing:0px;word-spacing:0px;writing-mode:lr-tb;text-anchor:middle;fill:#d40000;fill-opacity:1;stroke:#000000;stroke-width:2.13333344;stroke-miterlimit:4;stroke-dasharray:none" />
    <path
       inkscape:connector-curvature="0"
       id="path3847"
       d="m 387.15418,224.05439 c 0.61921,-0.25797 1.13524,-0.0773 1.54811,0.54184 0.15479,0.30969 0.18058,0.6451 0.0774,1.00628 -0.0516,0.36129 -0.23223,0.64512 -0.54182,0.85148 -0.8773,0.51608 -1.83198,1.23855 -2.86404,2.16736 -1.03211,0.87733 -1.72876,1.67719 -2.08997,2.39959 v 0.23222 c -0.10325,0.56768 -0.28385,1.00633 -0.54184,1.3159 -0.25804,0.41289 -0.77407,0.72251 -1.54812,0.92888 -0.36125,0.10325 -0.9547,0.23227 -1.78034,0.38703 -1.90937,0.30966 -3.27686,0.61929 -4.10252,0.92886 -1.44494,0.5161 -2.45121,1.18695 -3.01885,2.01257 -0.72246,1.03212 -0.87728,2.45123 -0.46442,4.25732 0.46442,1.80619 1.98673,3.17369 4.56696,4.10254 2.42538,0.8773 5.62482,1.36752 9.59834,1.4707 2.78659,0.0516 6.34728,-0.0773 10.68205,-0.38703 5.10877,-0.3612 7.79216,-0.5418 8.05024,-0.54184 0.25797,4e-5 0.67079,-0.0258 1.23847,-0.0774 l 2.08998,-0.23223 c 0.82562,-0.0515 1.54806,-0.10315 2.16738,-0.1548 1.29004,-0.10315 2.37371,-0.1548 3.25104,-0.15482 1.18686,0.0516 2.0641,0.20646 2.63182,0.46443 0.56758,0.30967 1.05782,0.9289 1.47072,1.85777 0.15474,0.46445 0.30954,1.00629 0.46442,1.6255 0.30958,1.08372 0.51599,2.09 0.61924,3.01885 0.15477,1.65135 -0.0258,2.86404 -0.54184,3.63809 -0.36127,0.46445 -1.00633,0.82567 -1.93514,1.08369 -0.6193,0.10325 -1.44498,0.20643 -2.47699,0.30961 -1.39336,0.10325 -3.53493,0.12903 -6.4247,0.0774 h -6.19248 c -0.77413,0.0516 -1.36758,0.10325 -1.78035,0.15484 l 0.0774,0.30961 0.77406,1.54813 0.77405,1.4707 c 1.70291,3.50908 2.39957,6.32152 2.08997,8.43728 -0.36127,2.37379 -2.0642,4.67016 -5.10878,6.88913 -2.99309,2.16738 -5.90871,3.74129 -8.7469,4.72177 -2.78665,1.03208 -5.62487,1.54811 -8.51467,1.54811 -2.88985,0 -6.11508,-0.28382 -9.67576,-0.85145 -3.97351,-0.67087 -6.96655,-2.39959 -8.97909,-5.18621 -1.90936,-2.52861 -2.86404,-5.80544 -2.86404,-9.83058 0,-0.10315 -0.0258,-0.38702 -0.0773,-0.85147 v -1.2385 c 0,-1.44489 0.43862,-2.45116 1.3159,-3.01882 0.20641,-0.10315 0.43863,-0.1806 0.69665,-0.23222 h 0.61924 c 0.36125,-0.0516 0.85147,-0.0774 1.47072,-0.0774 1.1353,-0.0516 2.477,-0.0516 4.02512,0 1.54813,0.0516 2.91562,0.12902 4.10252,0.2322 0.61924,0.0516 1.10948,0.12904 1.47073,0.23222 0.20639,2e-5 0.38701,0.0258 0.54184,0.0774 0.3612,0.15481 0.64503,0.33544 0.85146,0.54183 0.51601,0.61926 0.82565,1.41914 0.92886,2.3996 v 1.08367 c 0,0.41284 0.0258,0.72247 0.0774,0.92888 0.10315,1.29011 0.87725,2.34801 2.32219,3.17366 1.49649,0.92887 3.27681,1.08369 5.34101,0.46443 2.06413,-0.61925 3.38005,-1.72873 3.94771,-3.32847 0.61922,-1.7029 0.0516,-3.45746 -1.70293,-5.2636 -1.54815,-1.65133 -3.4833,-2.91561 -5.80547,-3.79291 -1.13529,-0.46441 -2.99305,-1.00626 -5.57324,-1.62552 -2.6318,-0.67084 -4.59275,-1.23847 -5.88285,-1.70292 -4.64437,-1.80615 -7.48259,-4.87657 -8.51467,-9.21133 -1.65133,-7.12133 -0.64506,-12.69455 3.01885,-16.71972 3.35425,-3.71543 8.59205,-5.728 15.71342,-6.03767 1.08366,-0.15476 2.42537,-0.20636 4.02512,-0.1548 1.5997,0.0516 3.01881,0.33548 4.25734,0.85145 0.4128,0.20647 0.69663,0.51609 0.85147,0.92887"
       style="font-style:normal;font-variant:normal;font-weight:500;font-stretch:normal;font-size:329.85540771px;line-height:100%;font-family:Cherokeehandlines;-inkscape-font-specification:'Cherokeehandlines Medium';text-align:center;letter-spacing:0px;word-spacing:0px;writing-mode:lr-tb;text-anchor:middle;fill:#d40000;fill-opacity:1;stroke:#000000;stroke-width:2.13333344;stroke-miterlimit:4;stroke-dasharray:none" />
    <path
       inkscape:connector-curvature="0"
       id="path3845"
       d="m 380.65205,230.94354 c 0.0516,-0.51601 0.15479,-0.90302 0.30962,-1.16111 0.72245,-1.34163 2.06415,-2.78655 4.02512,-4.33473 -0.87728,-0.30958 -1.93517,-0.46438 -3.17363,-0.46444 -1.23853,-0.0515 -2.45121,-0.0257 -3.63809,0.0774 -6.45052,0.30967 -11.09489,2.03841 -13.9331,5.18621 -3.04463,3.3027 -3.8187,8.07608 -2.32218,14.32011 0.41282,1.96099 1.1869,3.50911 2.32218,4.64436 1.18688,1.08371 2.70921,1.98679 4.56695,2.70923 1.13529,0.46445 2.99303,1.00629 5.57323,1.62551 2.63179,0.67088 4.56695,1.23852 5.80548,1.70295 2.68339,1.03209 4.95395,2.50281 6.81173,4.41214 2.47696,2.63182 3.22522,5.31524 2.24478,8.05024 -0.8773,2.42539 -2.76085,4.05091 -5.65066,4.87658 -2.83825,0.82568 -5.34103,0.61923 -7.50837,-0.61926 -2.21901,-1.34169 -3.40588,-3.12203 -3.56069,-5.34102 -0.0516,-0.25801 -0.0774,-0.61924 -0.0774,-1.08369 v -0.85146 c -3e-5,-0.3096 -0.0516,-0.54183 -0.15484,-0.69665 -0.30962,-0.0516 -0.72247,-0.10315 -1.23848,-0.15482 -1.08371,-0.10315 -2.3996,-0.1806 -3.94772,-0.23222 -1.49652,-0.0516 -2.81241,-0.0516 -3.94771,0 h -1.31589 l -0.0774,0.0774 c -0.0516,0.15482 -0.0774,0.36124 -0.0774,0.61923 v 1.08369 c 0.0516,0.51606 0.0774,0.85149 0.0774,1.00628 0,3.40588 0.77404,6.16669 2.32218,8.28247 1.65133,2.21895 4.10252,3.58647 7.35356,4.1025 4.85077,0.98049 9.21131,1.1353 13.08164,0.46444 3.81866,-0.67085 7.76638,-2.47698 11.84313,-5.41841 2.42535,-1.75453 3.76706,-3.48328 4.02512,-5.18623 0.25797,-1.5481 -0.33548,-3.81868 -1.78034,-6.81171 -0.15486,-0.25802 -0.43869,-0.77405 -0.85147,-1.54812 l -0.77407,-1.54813 c -0.20646,-0.56762 -0.36127,-1.00627 -0.46443,-1.31591 -0.15485,-0.72242 -0.0774,-1.31587 0.23221,-1.78034 0.20639,-0.3096 0.54182,-0.54181 1.00629,-0.69666 0.25797,-0.0515 0.56759,-0.10315 0.92886,-0.15481 0.56761,-0.10315 1.34168,-0.18058 2.32219,-0.2322 h 6.2699 c 2.83818,0.0516 4.92814,0.0258 6.26989,-0.0774 0.8772,-0.0515 1.54805,-0.15479 2.01255,-0.30962 0.15476,3e-5 0.30957,-0.0258 0.46443,-0.0774 0.0515,-0.36121 0.0257,-0.92885 -0.0774,-1.70294 -0.0516,-0.82563 -0.18067,-1.72869 -0.38703,-2.7092 -0.15486,-0.51601 -0.28388,-0.92886 -0.38704,-1.2385 -0.10325,-0.20639 -0.20646,-0.38702 -0.30962,-0.54184 -0.25806,-0.0516 -0.7483,-0.10315 -1.4707,-0.15482 -0.72252,3e-5 -1.72879,0.0516 -3.01885,0.15482 l -2.08996,0.1548 -2.16736,0.23223 c -0.61931,0.0516 -1.08373,0.0774 -1.39331,0.0774 -0.20646,4e-5 -2.83828,0.18065 -7.89543,0.54184 -4.33476,0.30966 -7.97285,0.43867 -10.91426,0.38704 -4.33476,-0.15479 -7.79222,-0.69664 -10.3724,-1.62554 -3.45749,-1.23845 -5.52166,-3.22521 -6.19251,-5.96025 -0.67083,-2.58016 -0.41282,-4.69594 0.77407,-6.34731 0.87726,-1.34166 2.29637,-2.34793 4.25733,-3.01882 1.03206,-0.3612 2.5544,-0.72243 4.56696,-1.0837 0.72246,-0.10314 1.23849,-0.20636 1.54813,-0.30962 h 0.15481"
       style="font-style:normal;font-variant:normal;font-weight:500;font-stretch:normal;font-size:329.85540771px;line-height:100%;font-family:Cherokeehandlines;-inkscape-font-specification:'Cherokeehandlines Medium';text-align:center;letter-spacing:0px;word-spacing:0px;writing-mode:lr-tb;text-anchor:middle;fill:#d40000;fill-opacity:1;stroke:none;stroke-width:1.06666672" />
    <path
       inkscape:connector-curvature="0"
       id="path3841"
       d="m 302.63884,237.44564 c -0.46444,-0.30958 -0.74827,-0.46438 -0.85147,-0.46442 -0.30962,4e-5 -0.72244,0.0774 -1.23851,0.23222 -0.82564,0.15483 -1.3417,0.23225 -1.54811,0.2322 -1.59973,0.20646 -2.83822,-0.0515 -3.71548,-0.77405 -1.08369,-0.87723 -1.72874,-2.50277 -1.93516,-4.87658 -0.1548,-2.21894 -0.12901,-4.15407 0.0774,-5.80546 -0.25801,-0.25798 -0.38701,-0.5676 -0.38701,-0.92887 0,-0.61921 0.2838,-1.03204 0.85146,-1.23849 0.30962,-0.61919 0.79986,-0.82564 1.47071,-0.61927 0.36125,0.0516 0.61926,0.23228 0.77407,0.54185 2.11575,4e-5 5.28941,-0.0257 9.52094,-0.0774 4.23151,-0.0515 7.61158,-0.0773 10.14021,-0.0774 2.58016,-0.0515 5.6764,-0.0257 9.28872,0.0774 3.45744,0.10325 6.76008,0.25807 9.90797,0.46444 0.67082,0.0516 1.80609,0.0516 3.40586,0 1.85772,-0.0515 3.17361,-0.0773 3.94772,-0.0774 3.35421,0.10325 5.90861,0.90313 7.66319,2.3996 1.08364,0.92891 1.7803,2.58024 2.08996,4.95397 0.25797,1.75459 0.33539,3.94776 0.23223,6.57952 -0.10325,1.39336 -0.23228,2.86406 -0.38704,4.41215 -0.10325,1.54815 -0.25806,3.07048 -0.46443,4.56695 l -0.30962,2.78662 c -0.10325,1.23852 -0.12907,3.3027 -0.0774,6.1925 0.15476,4.38634 0.23217,7.01816 0.23222,7.89541 -5e-5,3.14787 -0.15488,5.72807 -0.46442,7.74061 -0.4129,2.68342 -1.16116,4.67016 -2.24478,5.96026 -0.25809,0.30962 -0.64512,0.69665 -1.16111,1.16111 -0.61929,0.51603 -1.10953,0.87725 -1.4707,1.08367 -0.87732,0.36121 -2.50286,0.54184 -4.87659,0.54184 -1.80618,0.0516 -4.12837,-0.0258 -6.96654,-0.23223 -1.49657,-0.0516 -3.71552,-0.20641 -6.65693,-0.46443 -2.88986,-0.20641 -4.69599,-0.30962 -5.41843,-0.30962 -1.80616,-0.0516 -4.36056,-0.0258 -7.66318,0.0774 -3.30268,0.10325 -5.59905,0.15482 -6.88917,0.15482 -0.30961,0 -1.10947,0.0516 -2.39958,0.1548 -1.65132,0.15481 -2.88982,0.25802 -3.71548,0.30962 -1.54814,0.0516 -2.81242,0.0516 -3.79291,0 -0.56763,0 -1.08366,-0.0516 -1.54812,-0.15481 -0.56764,-0.15481 -1.03207,-0.38703 -1.39331,-0.69665 l -0.38701,-0.61927 v -0.2322 c -0.0516,-0.10315 -0.0774,-0.23222 -0.0774,-0.38703 0,-0.20642 -0.0258,-0.51603 -0.0774,-0.92888 -0.0516,-0.67084 -0.0773,-1.13528 -0.0773,-1.39332 -0.0516,-1.80613 0.12902,-3.19944 0.54185,-4.17992 0.41282,-1.08367 1.18689,-1.78032 2.32217,-2.08996 0.56765,-0.1548 1.54811,-0.20639 2.94142,-0.15482 1.44492,0.0516 2.55439,0.0516 3.32847,0 v -0.15481 c -0.0516,-0.98045 -0.0774,-2.9414 -0.0774,-5.88285 -2e-5,-1.23848 -0.0774,-5.88284 -0.23222,-13.9331 -0.0516,-3.50905 -0.10325,-6.37306 -0.15482,-8.59207 v -2.78662 c -0.0516,-0.15476 -0.0774,-0.28378 -0.0774,-0.38703"
       style="font-style:normal;font-variant:normal;font-weight:500;font-stretch:normal;font-size:329.85540771px;line-height:100%;font-family:Cherokeehandlines;-inkscape-font-specification:'Cherokeehandlines Medium';text-align:center;letter-spacing:0px;word-spacing:0px;writing-mode:lr-tb;text-anchor:middle;fill:#d40000;fill-opacity:1;stroke:#000000;stroke-width:2.13333344;stroke-miterlimit:4;stroke-dasharray:none" />
    <path
       inkscape:connector-curvature="0"
       id="path3839"
       d="m 337.23935,237.29083 h -0.0774 c -0.61931,-0.0515 -1.49657,-0.0773 -2.63181,-0.0774 h -7.81801 c -3.35431,-0.0516 -6.08933,-0.0516 -8.20506,0 -1.23852,2e-5 -2.24479,0.0258 -3.01884,0.0774 -0.10325,1.49656 -0.0774,3.48332 0.0774,5.96027 0.3096,4.95403 0.46441,7.56003 0.46444,7.81802 -3e-5,0.15484 -0.36125,3.40588 -1.08369,9.75317 -0.25805,2.3738 -0.41285,4.20574 -0.46444,5.49582 v 1.62552 h 0.0774 c 0.51601,0.0516 1.21266,0.0774 2.08996,0.0774 1.70292,0.0516 3.87028,0.10325 6.50211,0.1548 5.83123,2e-5 9.3919,-0.0516 10.68204,-0.1548 1.34167,-0.10326 2.32215,-0.46444 2.94143,-1.08369 0.6708,-0.67085 1.13526,-1.78033 1.39331,-3.32847 0.10315,-0.56762 0.15477,-2.27054 0.15481,-5.10879 -4e-5,-2.8382 -0.0516,-5.90865 -0.15481,-9.21132 -0.15485,-3.40583 -0.33547,-6.34726 -0.54184,-8.82429 -0.10325,-1.34166 -0.20646,-2.32214 -0.30962,-2.94143 -0.0516,-0.10314 -0.0774,-0.18057 -0.0774,-0.23223"
       style="font-style:normal;font-variant:normal;font-weight:500;font-stretch:normal;font-size:329.85540771px;line-height:100%;font-family:Cherokeehandlines;-inkscape-font-specification:'Cherokeehandlines Medium';text-align:center;letter-spacing:0px;word-spacing:0px;writing-mode:lr-tb;text-anchor:middle;fill:#d40000;fill-opacity:1;stroke:none;stroke-width:1.06666672" />
    <path
       inkscape:connector-curvature="0"
       id="path3837"
       d="m 315.17862,234.65902 c 0.77405,-0.0515 1.85774,-0.0773 3.25105,-0.0774 2.21896,-0.0515 4.97977,-0.0515 8.28247,0 h 7.8954 c 1.08365,4e-5 1.93512,0.0258 2.55442,0.0774 h 0.77405 0.23222 0.15481 0.0774 c 0.15478,0.0516 0.33538,0.12907 0.54185,0.23222 0.3096,0.25807 0.5418,0.61929 0.69665,1.08369 0.10314,0.30968 0.18057,0.67089 0.23223,1.08367 0.15476,0.77413 0.28378,1.832 0.38703,3.17366 0.20637,2.32221 0.38697,5.31525 0.54185,8.9791 0.10314,3.3027 0.15476,6.39893 0.15481,9.28874 -5e-5,2.99305 -0.0516,4.85079 -0.15481,5.57323 -0.4129,2.11579 -1.13534,3.6897 -2.16739,4.72178 -1.08373,1.0837 -2.63185,1.70293 -4.64435,1.85774 -1.29015,0.10315 -4.90242,0.15481 -10.83686,0.15481 -2.68344,-0.0516 -4.87661,-0.10325 -6.57951,-0.15481 -0.92889,0 -1.67714,-0.0258 -2.24478,-0.0774 -0.30964,-0.0516 -0.56766,-0.0774 -0.77405,-0.0774 -0.10325,-0.0516 -0.20643,-0.0774 -0.30964,-0.0774 -0.25804,-0.0516 -0.46445,-0.15481 -0.61924,-0.30962 -0.25804,-0.20641 -0.46445,-0.54182 -0.61926,-1.00627 -0.0516,-0.20642 -0.0774,-0.49025 -0.0774,-0.85147 -0.0516,-0.51603 -0.0774,-1.21269 -0.0774,-2.08996 0.10326,-1.34171 0.28381,-3.22524 0.54185,-5.65066 0.67085,-6.24406 1.00627,-9.3919 1.00627,-9.44353 0,-0.82565 -0.1548,-3.38004 -0.46443,-7.6632 -0.20643,-2.73497 -0.23222,-4.92815 -0.0773,-6.57952 -0.10325,-0.15478 -0.18065,-0.33538 -0.23223,-0.54184 -0.10326,-0.56761 0.10314,-1.00623 0.61924,-1.31592 0.30962,-0.46438 0.72244,-0.67079 1.23849,-0.61924 0.25802,0.0516 0.49022,0.15486 0.69667,0.30962"
       style="font-style:normal;font-variant:normal;font-weight:500;font-stretch:normal;font-size:329.85540771px;line-height:100%;font-family:Cherokeehandlines;-inkscape-font-specification:'Cherokeehandlines Medium';text-align:center;letter-spacing:0px;word-spacing:0px;writing-mode:lr-tb;text-anchor:middle;fill:#ffffff;fill-opacity:1;stroke:#000000;stroke-width:2.13333344;stroke-miterlimit:4;stroke-dasharray:none" />
    <path
       inkscape:connector-curvature="0"
       id="path3827"
       d="m 196.86102,263.06706 c 0.25802,0 1.10949,0 2.5544,0 1.49652,-0.0516 2.68341,-0.0774 3.56068,-0.0774 1.54811,3e-5 2.78661,0.0516 3.71549,0.15482 0.56764,0.0516 1.03207,0.12901 1.39332,0.23222 0.61923,0.15484 1.08367,0.41285 1.3933,0.77405 0.77405,0.92891 1.16108,2.21899 1.1611,3.87031 -0.0516,0.46445 -0.10326,1.08369 -0.15482,1.85774 l -0.23222,1.62554 c -0.10326,1.08369 -0.0516,1.78034 0.15481,2.08996 0.1548,0.36122 0.67084,0.54185 1.54813,0.54185 h 0.38703 0.46444 0.46442 l 0.85147,-0.0774 c 1.4965,-0.82566 2.27056,-2.735 2.32219,-5.72806 0.0516,-1.03206 -0.0258,-2.45115 -0.23222,-4.25732 -0.15483,-1.96094 -0.23224,-3.22523 -0.23222,-3.79288 v -1.16111 c -2e-5,-0.4128 -0.0258,-0.85145 -0.0774,-1.3159 -2e-5,-0.51603 -2e-5,-0.92886 0,-1.2385 -0.0516,-1.5481 -0.0258,-2.8382 0.0774,-3.87031 0.30961,-3.09621 1.41909,-7.04392 3.32846,-11.84311 1.96094,-4.79915 3.89608,-8.41142 5.80546,-10.83686 1.29007,-1.59968 3.25102,-2.94138 5.88286,-4.02512 2.68337,-1.08362 5.599,-1.83188 8.74689,-2.24477 2.88978,-0.46439 5.83121,-0.54178 8.82429,-0.23223 3.04458,0.30969 5.41835,1.03213 7.12135,2.16738 1.29004,0.82572 2.52854,1.9352 3.71551,3.32846 1.18683,1.39337 2.08989,2.78667 2.7092,4.17994 0.7224,1.44496 1.23843,4.28315 1.54812,8.51466 0.30955,3.97354 0.43856,8.20508 0.38703,12.69461 -0.0516,4.79919 -0.3355,8.9533 -0.85146,12.46236 -0.20648,1.85774 -0.49031,3.43167 -0.85146,4.72178 -0.4129,1.44491 -0.90315,2.50279 -1.47073,3.17363 -2.06422,2.3738 -4.87663,3.94773 -8.43725,4.72178 -3.50914,0.82567 -7.12141,1.13529 -10.83686,0.92887 -0.20647,0 -1.65137,0.10326 -4.33474,0.30962 -2.21901,0.15482 -3.87034,0 -4.95399,-0.46442 -0.36126,-0.20643 -0.72249,-0.54185 -1.08368,-1.0063 -0.20645,-0.30962 -0.43867,-0.69666 -0.69666,-1.16108 -0.41286,-0.82566 -0.82569,-1.83195 -1.23849,-3.01885 -0.36126,-1.08367 -0.64509,-2.14155 -0.85147,-3.17363 -0.10325,-0.46443 -0.18065,-0.87728 -0.23223,-1.2385 0.10315,1.96097 0.15479,3.40586 0.15482,4.33474 -3e-5,0.87727 -0.0516,1.59972 -0.15482,2.16735 -0.10325,0.82568 -0.33545,1.41913 -0.69665,1.78035 -0.46447,0.46443 -1.26433,0.87728 -2.39958,1.2385 -0.8773,0.25802 -2.01259,0.49024 -3.40587,0.69666 -2.63183,0.41282 -5.59906,0.61923 -8.90169,0.61923 -3.35429,0.0516 -6.32152,-0.12899 -8.90171,-0.54182 -1.39331,-0.20643 -2.5286,-0.43864 -3.40587,-0.69665 -1.13528,-0.41286 -1.93514,-0.9031 -2.39958,-1.47073 -1.18689,-1.44491 -1.88355,-3.74129 -2.08996,-6.88913 v -6.42471 c -0.36123,-0.30962 -0.54185,-0.69665 -0.54185,-1.16111 0,-0.36119 0.15482,-0.64502 0.46444,-0.85145 0.25802,-0.258 0.56765,-0.38702 0.92887,-0.38702"
       style="font-style:normal;font-variant:normal;font-weight:500;font-stretch:normal;font-size:329.85540771px;line-height:100%;font-family:Cherokeehandlines;-inkscape-font-specification:'Cherokeehandlines Medium';text-align:center;letter-spacing:0px;word-spacing:0px;writing-mode:lr-tb;text-anchor:middle;fill:#d40000;fill-opacity:1;stroke:#000000;stroke-width:2.13333344;stroke-miterlimit:4;stroke-dasharray:none" />
    <path
       inkscape:connector-curvature="0"
       id="path3835"
       d="m 245.16242,271.65913 h 0.0774 c 0.5676,0.10325 1.47069,0 2.70923,-0.30963 0.56759,-0.1548 1.16104,-0.87724 1.78033,-2.16738 0.67079,-1.39328 1.18685,-3.07042 1.54812,-5.03139 0.30956,-1.96092 0.36117,-3.63806 0.1548,-5.03139 -0.0516,-0.61922 -0.15486,-1.10946 -0.30962,-1.47071 l -0.2322,-0.30961 c -0.10326,0 -0.43871,-0.0258 -1.0063,-0.0774 -0.61928,2e-5 -1.39335,0.0258 -2.32216,0.0774 -1.703,0.10325 -3.92196,0.28383 -6.65693,0.54181 -5.00563,0.46448 -8.77272,0.8773 -11.30129,1.23851 -0.61927,0.10325 -1.0063,0.33545 -1.16109,0.69665 -0.30965,0.56766 -0.46447,1.78037 -0.46444,3.63809 -3e-5,1.29012 0.0515,3.25107 0.15482,5.88286 0.10315,-0.82565 0.5418,-1.67712 1.3159,-2.5544 0.61922,-0.67084 1.39327,-1.34169 2.32218,-2.01255 2.06413,-1.44491 3.81866,-2.21896 5.26362,-2.32219 4.17988,-0.3612 6.9407,0.18063 8.28245,1.62553 1.03202,1.1353 1.21264,2.81244 0.54185,5.03141 -0.0516,0.1548 -0.15488,0.46444 -0.30965,0.92885 -0.10325,0.46445 -0.18064,0.79988 -0.2322,1.00629 -0.0516,0.25802 -0.10325,0.46444 -0.15481,0.61925"
       style="font-style:normal;font-variant:normal;font-weight:500;font-stretch:normal;font-size:329.85540771px;line-height:100%;font-family:Cherokeehandlines;-inkscape-font-specification:'Cherokeehandlines Medium';text-align:center;letter-spacing:0px;word-spacing:0px;writing-mode:lr-tb;text-anchor:middle;fill:#ffffff;fill-opacity:1;stroke:#000000;stroke-width:2.13333344;stroke-miterlimit:4;stroke-dasharray:none" />
    <path
       inkscape:connector-curvature="0"
       id="path3831"
       d="m 226.97198,248.90174 v -0.0774 c 0.10315,-0.4128 0.3612,-1.78032 0.77407,-4.10253 0.36119,-1.90932 0.72242,-3.45744 1.08368,-4.64436 1.23846,-3.97347 3.22521,-6.50207 5.96026,-7.58579 2.58016,-1.03204 5.34098,-1.47068 8.28247,-1.31592 3.61222,0.15486 6.26982,1.26436 7.97282,3.32847 0.30957,0.41288 0.59338,0.90312 0.85147,1.47072 0.30956,0.56769 0.51598,1.05793 0.61923,1.47071 0.15476,0.36127 0.33539,0.90311 0.54184,1.62554 0.20637,0.72248 0.30958,1.10952 0.30963,1.16107 0.56758,1.8578 0.90301,3.07048 1.00629,3.63809 0.36115,1.80618 0.28376,3.2511 -0.23223,4.33475 -0.15488,0.41286 -0.51609,0.72248 -1.08369,0.92887 -0.25805,0.10325 -0.59349,0.20644 -1.00627,0.30962 -0.67091,0.15484 -1.65139,0.30967 -2.94143,0.46443 -1.85781,0.20646 -4.69601,0.46448 -8.51466,0.77407 -7.43102,0.56766 -12.2302,0.85149 -14.39754,0.85146 -0.36126,3e-5 -0.67088,-0.12897 -0.92887,-0.38703 -0.25805,-0.25799 -0.38706,-0.56761 -0.38703,-0.92886 -3e-5,-0.36119 0.12898,-0.67084 0.38703,-0.92887 0.25799,-0.258 0.56761,-0.38702 0.92887,-0.38704 h 0.77406"
       style="font-style:normal;font-variant:normal;font-weight:500;font-stretch:normal;font-size:329.85540771px;line-height:100%;font-family:Cherokeehandlines;-inkscape-font-specification:'Cherokeehandlines Medium';text-align:center;letter-spacing:0px;word-spacing:0px;writing-mode:lr-tb;text-anchor:middle;fill:#ffffff;fill-opacity:1;stroke:#000000;stroke-width:2.13333344;stroke-miterlimit:4;stroke-dasharray:none" />
    <path
       inkscape:connector-curvature="0"
       id="path3825"
       d="m 157.33918,268.02105 c 0.20638,0.25803 0.387,0.43863 0.54184,0.54184 0.20638,0.0516 0.59341,0.10315 1.16109,0.15481 0.98045,0.0516 1.7029,-0.129 2.16737,-0.54185 0.3612,-0.36123 0.69662,-1.03206 1.00627,-2.01254 0.0515,-0.15482 0.15479,-0.54185 0.30964,-1.16111 0.15477,-0.61922 0.28378,-1.08367 0.38703,-1.39331 0.15477,-0.3612 0.33539,-0.79984 0.54183,-1.3159 0.25798,-0.51603 0.56762,-0.98046 0.92888,-1.39331 0.36119,-0.4128 0.77402,-0.74823 1.23849,-1.00627 0.92884,-0.61924 1.96092,-0.87726 3.09625,-0.77407 1.13524,0.10325 2.08992,0.49026 2.86402,1.16111 0.77402,0.61925 1.34166,1.4449 1.70293,2.47697 0.41279,0.98051 0.38699,2.06418 -0.0774,3.25107 -1.34175,3.40586 -4.15417,5.85707 -8.43727,7.35357 -3.81873,1.34171 -7.50841,1.54814 -11.06906,0.61925 -3.40589,-0.82567 -6.55373,-2.68341 -9.44355,-5.57324 -2.42539,-2.47697 -4.28314,-6.06345 -5.57323,-10.75944 -0.92888,-3.25102 -0.95468,-7.01812 -0.0774,-11.30128 1.39329,-6.8117 5.67642,-11.30125 12.8494,-13.46865 5.31518,-1.5997 11.68828,-1.83191 19.1193,-0.69665 0.41279,0.0516 0.79982,0.15485 1.16109,0.30961 0.41279,0.10325 0.82562,0.28386 1.23849,0.54184 0.4644,0.20647 0.82563,0.38707 1.0837,0.54183 0.30957,0.10325 0.6966,0.33548 1.16108,0.69666 l 1.00629,0.61925 1.00627,0.77405 c 0.51599,0.4129 0.82562,0.6451 0.92887,0.69666 2.52855,1.96102 4.5669,2.83827 6.11509,2.63181 0.67079,-0.0515 1.21264,-0.69661 1.62552,-1.93516 1.08363,-3.04458 0.54178,-5.46996 -1.62552,-7.27617 -1.08375,-0.8772 -2.65767,-1.70288 -4.72178,-2.47697 -0.92892,4e-5 -2.16742,0.0258 -3.71549,0.0774 -2.94148,0.10325 -4.92823,0.12907 -5.96027,0.0774 -1.29013,-0.0515 -3.22529,-0.18057 -5.80545,-0.38703 -2.63184,-0.20637 -4.54119,-0.33539 -5.72805,-0.38704 -1.18693,-0.0515 -3.07047,-0.0257 -5.65064,0.0774 -6.0377,0.46447 -10.75947,2.63185 -14.16531,6.50209 -2.477,2.83827 -4.23154,6.06353 -5.26362,9.67578 -0.98048,3.6123 -1.2127,7.19878 -0.69665,10.75944 0.51603,3.5607 1.54812,6.96655 3.09624,10.2176 1.59972,3.19945 3.84449,5.98607 6.73433,8.35987 2.94141,2.37377 6.21826,3.97349 9.83057,4.79916 5.16038,1.2901 9.3145,1.52231 12.46238,0.69665 2.88978,-0.77407 5.59899,-2.08996 8.12764,-3.9477 2.58015,-1.90934 4.48949,-3.9993 5.72804,-6.2699 1.29005,-2.42536 1.65128,-4.74756 1.08369,-6.96655 -0.67091,-2.52857 -2.55445,-4.82494 -5.65064,-6.88913 -0.92892,-0.61923 -2.34803,-1.03206 -4.25734,-1.23849 -2.58024,-0.3096 -4.30898,-0.64504 -5.1862,-1.00631 -1.59977,-0.61921 -2.55444,-1.80611 -2.86403,-3.56066 -0.0516,-0.4128 -0.0774,-1.6771 -0.0774,-3.79289 0.0515,-1.13525 -0.10325,-1.93511 -0.46443,-2.39959 -0.41287,-0.56761 -1.39335,-0.87722 -2.94143,-0.92888 -0.92891,5e-5 -1.47075,0.0258 -1.62554,0.0774 -0.0516,0.20644 -0.0774,0.49027 -0.0774,0.85146 -0.0516,0.77409 -0.0774,1.83197 -0.0774,3.17364 -0.0516,2.63186 -0.0258,5.7797 0.0774,9.44355 0.10315,3.7155 0.23218,6.88915 0.38703,9.52094 0.10315,1.29013 0.20639,2.34801 0.30962,3.17365 0.0515,0.41285 0.10315,0.72247 0.15482,0.92886 v 0.0774"
       style="font-style:normal;font-variant:normal;font-weight:500;font-stretch:normal;font-size:329.85540771px;line-height:100%;font-family:Cherokeehandlines;-inkscape-font-specification:'Cherokeehandlines Medium';text-align:center;letter-spacing:0px;word-spacing:0px;writing-mode:lr-tb;text-anchor:middle;fill:#d40000;fill-opacity:1;stroke:none;stroke-width:1.06666672" />
    <path
       inkscape:connector-curvature="0"
       id="path3823"
       d="m 182.88318,225.83473 c 1.18684,0.61931 2.19311,1.26436 3.01884,1.93516 3.14778,2.52865 3.97345,5.9345 2.47699,10.2176 -0.77412,2.21901 -2.03842,3.43171 -3.7929,3.63808 -1.44497,0.15486 -2.78666,-0.0515 -4.02512,-0.61923 -1.23855,-0.56762 -2.58024,-1.39329 -4.02511,-2.47701 -0.10325,-0.10314 -0.36128,-0.28378 -0.77406,-0.54184 -0.36128,-0.30958 -0.61929,-0.51601 -0.77407,-0.61924 l -0.61924,-0.54185 c -0.36128,-0.25799 -0.61929,-0.4128 -0.77406,-0.46445 -0.15486,-0.10314 -0.38708,-0.23216 -0.69666,-0.38702 -0.25806,-0.20639 -0.49028,-0.36119 -0.69665,-0.46444 -0.15486,-0.10315 -0.36127,-0.20637 -0.61925,-0.30963 -0.25806,-0.10314 -0.51608,-0.18057 -0.77406,-0.23222 -0.20645,-0.0515 -0.43868,-0.10315 -0.69665,-0.15481 -7.01819,-1.13525 -12.97844,-0.95462 -17.8808,0.54185 -6.14091,1.85778 -9.80479,5.67649 -10.99167,11.4561 -0.82568,3.92193 -0.85148,7.27619 -0.0774,10.06278 1.18687,4.33476 2.83821,7.56002 4.95398,9.67578 2.52858,2.5286 5.26359,4.17993 8.20505,4.95398 3.04461,0.77407 6.24405,0.56766 9.59835,-0.61924 3.50903,-1.2385 5.77961,-3.17366 6.81173,-5.80546 0.41279,-1.08367 0.15477,-2.01256 -0.77406,-2.78663 -0.92891,-0.77405 -1.90939,-0.85144 -2.94143,-0.23222 -0.25806,0.20643 -0.49027,0.41284 -0.69665,0.61926 -0.15485,0.20643 -0.30966,0.49024 -0.46444,0.85146 l -0.38703,0.92888 c -0.10325,0.20641 -0.23225,0.59345 -0.38703,1.16109 -0.15484,0.56766 -0.28386,1.00629 -0.38703,1.31589 -0.41287,1.39334 -0.98052,2.4254 -1.70294,3.09624 -0.9805,0.98048 -2.34801,1.41912 -4.10252,1.31591 -0.8773,-0.0516 -1.54815,-0.18059 -2.01255,-0.38703 -0.61928,-0.25801 -1.18692,-0.74826 -1.70293,-1.4707 -0.20645,-0.20642 -0.36126,-0.54185 -0.46444,-1.0063 -0.0516,-0.3096 -0.10326,-0.69663 -0.15482,-1.16109 -0.10325,-0.82565 -0.20644,-1.93512 -0.30962,-3.32845 -0.15484,-2.6834 -0.28385,-5.88284 -0.38703,-9.59834 -0.10325,-3.71548 -0.12903,-6.88911 -0.0774,-9.52097 -2e-5,-1.39326 0.0258,-2.50274 0.0774,-3.32844 0.0515,-0.4644 0.0773,-0.85144 0.0774,-1.16111 0.0515,-0.15476 0.10315,-0.28378 0.15481,-0.38704 0.0516,-0.25796 0.15479,-0.4902 0.30963,-0.69665 0.15478,-0.20637 0.33539,-0.38699 0.54183,-0.54182 0.20639,-0.15479 0.41281,-0.258 0.61926,-0.30965 0.25799,-0.10314 0.4644,-0.18057 0.61925,-0.2322 0.20638,-0.0516 0.4386,-0.0773 0.69665,-0.0774 h 0.46444 0.54184 0.30962 c 2.42536,0.0516 4.12829,0.7225 5.1088,2.01258 0.67082,0.9289 0.98044,2.27061 0.92888,4.0251 -4e-5,1.90938 0.0258,2.99307 0.0774,3.25107 0.10315,0.77409 0.49021,1.29012 1.1611,1.54812 0.72241,0.30964 2.24473,0.59347 4.56695,0.85146 2.27054,0.25804 4.05087,0.8257 5.34103,1.70293 3.66383,2.37382 5.93441,5.16043 6.81173,8.35986 0.7224,2.88984 0.28377,5.85706 -1.3159,8.9017 -1.44497,2.63181 -3.61233,5.00558 -6.50212,7.12136 -2.83827,2.06415 -5.85709,3.50906 -9.05651,4.33474 -3.50911,0.98046 -8.07606,0.79986 -13.70087,-0.54185 -3.35429,-0.82567 -6.42473,-2.21898 -9.21132,-4.17992 -2.78663,-2.01256 -5.10881,-4.33474 -6.96655,-6.96655 -1.85775,-2.68339 -3.30267,-5.62482 -4.33474,-8.82429 -0.98048,-3.25105 -1.47072,-6.47629 -1.47071,-9.67575 0.0516,-3.25103 0.64505,-6.5021 1.78033,-9.75318 1.18689,-3.25102 2.88982,-6.16663 5.1088,-8.74689 3.87029,-4.4379 9.21131,-6.91488 16.02306,-7.43097 2.63178,-0.10315 4.56694,-0.12895 5.80545,-0.0774 1.29007,0.0516 3.27683,0.18067 5.96027,0.38703 2.68337,0.20648 4.56692,0.33548 5.65064,0.38704 1.13525,0.0516 2.86398,0.0258 5.18621,-0.0774 -4e-5,-0.0515 0.0258,-0.12895 0.0774,-0.23221 0.10315,-0.36117 0.30958,-0.61919 0.61925,-0.77407 0.30957,-0.15476 0.645,-0.18055 1.00628,-0.0774 1.49647,0.46448 2.58015,0.82571 3.25106,1.08367 0.56758,8e-5 1.10943,0.0258 1.62552,0.0774 0.61919,0.0516 1.00622,0.38709 1.16109,1.00628"
       style="font-style:normal;font-variant:normal;font-weight:500;font-stretch:normal;font-size:329.85540771px;line-height:100%;font-family:Cherokeehandlines;-inkscape-font-specification:'Cherokeehandlines Medium';text-align:center;letter-spacing:0px;word-spacing:0px;writing-mode:lr-tb;text-anchor:middle;fill:#d40000;fill-opacity:1;stroke:#000000;stroke-width:2.13333344;stroke-miterlimit:4;stroke-dasharray:none" />
    <path
       inkscape:connector-curvature="0"
       id="path3821"
       d="m 100.54489,247.66324 0.0774,-0.0774 c -5e-5,-0.0516 -5e-5,-0.12897 0,-0.23222 0.0516,-0.10315 0.10317,-0.23218 0.15481,-0.38704 0.15477,-0.51601 0.28378,-1.21266 0.38703,-2.08996 0.30958,-1.75449 0.5418,-3.84445 0.69665,-6.26987 0.15477,-2.42536 0.23218,-4.56692 0.23222,-6.4247 -4e-5,-0.92885 -0.0517,-1.70292 -0.15481,-2.3222 -4e-5,-0.56759 -0.0516,-0.90302 -0.15481,-1.00627 -0.36127,-0.87723 -1.67717,-1.47068 -3.947712,-1.78035 -1.083722,-0.15476 -2.99307,-0.23218 -5.728049,-0.23223 -3.612314,5e-5 -8.901721,-0.10315 -15.868244,-0.30961 -6.914952,-0.20637 -12.023748,-0.30958 -15.326403,-0.30962 -0.309625,2.37383 -0.283821,4.10256 0.07741,5.1862 0.206413,0.67089 0.619245,1.05793 1.238495,1.16108 0.309622,0.0516 0.722455,0.0516 1.238498,0 0.877264,-0.0515 1.393303,-0.0515 1.548122,0 0.72245,5e-5 1.341697,0.12907 1.857746,0.38704 0.670844,0.41287 1.109479,1.00632 1.315903,1.78034 0.464426,1.54818 0.567635,3.58653 0.309624,6.11509 l -0.387029,3.01882 c -0.103221,1.13532 -0.180623,2.0126 -0.232219,2.63181 -0.154822,2.58024 -0.05162,7.2504 0.309624,14.0105 0.05159,1.0321 0.0774,2.96726 0.07741,5.80546 -9e-6,1.44492 -0.02581,2.63181 -0.07741,3.56067 -9e-6,0.51605 -0.02581,0.92888 -0.07741,1.2385 v 0.54184 c -0.103221,0.25804 -0.206428,0.46445 -0.309627,0.61927 -0.258027,0.41282 -0.67086,0.72244 -1.238496,0.92885 -0.10321,0.0516 -0.361236,0.12902 -0.774061,0.23222 -0.258026,0.0516 -1.032086,0.0774 -2.322182,0.0774 -0.670855,0.0516 -1.10949,0.15484 -1.315903,0.30965 -0.10321,0.1548 -0.180617,0.36122 -0.232218,0.61924 -0.154815,0.51605 -0.258024,1.10947 -0.309625,1.78034 -2e-6,0.67084 0.05161,1.2385 0.154813,1.70293 0.05161,0.15481 0.103211,0.28383 0.154812,0.38703 0.516038,0.20641 1.522315,0.28381 3.018836,0.23221 2.37378,-0.10315 3.68968,-0.15481 3.947711,-0.15481 0.516029,0.0516 2.322169,0.28383 5.418424,0.69665 1.960936,0.30962 3.380047,0.38704 4.257335,0.23223 0.877248,-0.15481 1.444892,-0.54185 1.702931,-1.16108 0.361209,-1.03209 0.258,-2.73502 -0.309623,-5.10881 l -0.154812,-0.30962 h -0.696655 c -0.722476,-0.0516 -1.264316,-0.15481 -1.625527,-0.30963 -0.774078,-0.30962 -1.31592,-0.92887 -1.625527,-1.85776 -0.05162,-0.15478 -0.07742,-0.33541 -0.07741,-0.54184 v -0.46443 -1.2385 c 0.05158,-1.03207 0.103189,-2.27056 0.154812,-3.71548 0.103189,-1.44491 0.180597,-2.6576 0.232219,-3.63808 0.05158,-0.56764 0.10319,-1.00627 0.154812,-1.31592 -1.6e-5,-0.20639 0.02578,-0.3612 0.07741,-0.46442 -1.6e-5,-0.20639 0.05158,-0.38702 0.154814,-0.54185 0.309605,-0.72245 0.903052,-1.23848 1.780339,-1.54813 0.361209,-0.15478 0.903051,-0.28379 1.625527,-0.38703 3.612259,-0.51601 6.063448,0.10326 7.353577,1.85774 0.980447,1.29013 1.315873,3.30268 1.00628,6.03769 -0.05164,0.41285 -0.206446,1.47073 -0.464439,3.17363 -0.206443,1.34174 -0.309652,2.3222 -0.309623,2.94143 -0.103232,1.80617 0.232191,2.99306 1.006278,3.56069 0.206387,0.15482 0.361199,0.23223 0.464439,0.23223 0.722425,-0.0516 1.341673,0.0258 1.857745,0.2322 0.516006,0.20644 1.238463,0.64506 2.167369,1.31593 0.670818,0.51603 1.186858,0.82564 1.548123,0.92885 h 0.309623 0.464437 c 0.516003,0.0516 1.186854,0.0774 2.012557,0.0774 1.599685,0 3.509039,-0.0258 5.728049,-0.0774 2.11572,-0.10325 4.05088,-0.20641 5.80546,-0.30962 1.75448,-0.10315 2.76075,-0.1806 3.01883,-0.23223 0.61919,-0.20641 1.54807,-1.03206 2.78662,-2.47698 1.23844,-1.3933 2.0125,-2.50278 2.32218,-3.32846 0.10315,-0.20641 0.18056,-0.95467 0.23222,-2.24478 0.10314,-1.39331 0.15475,-2.88982 0.15481,-4.48954 -6e-5,-1.75453 -0.0774,-3.19945 -0.23222,-4.33474 -0.0516,-0.46443 -0.10325,-0.85147 -0.15481,-1.16111 -0.25808,-0.0515 -0.5935,-0.0515 -1.00628,0 -0.20647,3e-5 -0.5935,0.0258 -1.16109,0.0774 -0.46449,0.0516 -0.79991,0.0774 -1.00628,0.0774 -1.34176,2e-5 -2.21903,0.15482 -2.63181,0.46445 -0.20646,0.15483 -0.30967,0.49024 -0.30962,1.00627 0.0515,0.30964 0.10315,0.72247 0.15482,1.2385 0.15476,0.98048 0.23216,1.49654 0.23221,1.54812 0.20637,1.49655 0.15476,2.76083 -0.1548,3.7929 -0.10326,0.41284 -0.33548,0.85149 -0.69667,1.31589 -0.30967,0.30964 -0.6967,0.64508 -1.16108,1.00629 -0.87733,0.67087 -1.8836,1.3159 -3.01884,1.93516 -1.23854,0.67084 -2.34803,1.1353 -3.32846,1.39331 -0.56769,0.15481 -1.08373,0.20641 -1.54812,0.15481 -0.7225,-0.0516 -1.29014,-0.30962 -1.702937,-0.77407 -0.464476,-0.56764 -0.670892,-1.4707 -0.619248,-2.70921 -4.1e-5,-0.67083 0.07737,-1.67711 0.232219,-3.01884 0.257978,-1.90934 0.386988,-2.88981 0.387029,-2.94143 0.103168,-0.98046 0.12897,-1.62551 0.07741,-1.93515 -0.206458,-1.18688 -0.361269,-1.85772 -0.464436,-2.01255 l -0.309626,-0.23223 c -0.206455,-0.10315 -0.54188,-0.28381 -1.006279,-0.54184 l -2.94143,-1.4707 c -1.238533,-0.77405 -2.115799,-1.52232 -2.631808,-2.24478 -0.877301,-1.23848 -0.825695,-2.45117 0.154813,-3.63808 0.361196,-0.41281 1.006245,-0.77405 1.935152,-1.08369 0.257986,-0.0516 1.057848,-0.258 2.399589,-0.61927 1.909309,-0.56761 3.122002,-1.08364 3.638082,-1.54811"
       style="font-style:normal;font-variant:normal;font-weight:500;font-stretch:normal;font-size:329.85540771px;line-height:100%;font-family:Cherokeehandlines;-inkscape-font-specification:'Cherokeehandlines Medium';text-align:center;letter-spacing:0px;word-spacing:0px;writing-mode:lr-tb;text-anchor:middle;fill:#d40000;fill-opacity:1;stroke:none;stroke-width:1.06666672" />
    <path
       inkscape:connector-curvature="0"
       id="path3819"
       d="m 65.557347,270.73024 v -1.00627 c 0.0516,-0.87725 0.0774,-2.01255 0.07741,-3.40586 -4e-6,-2.78659 -0.02581,-4.67014 -0.07741,-5.65065 -0.361234,-6.65689 -0.464442,-11.43027 -0.309623,-14.32011 0.05159,-0.67083 0.154804,-1.62549 0.309623,-2.86404 0.154806,-1.49647 0.258014,-2.45114 0.309625,-2.86401 0.206407,-2.16734 0.154804,-3.87027 -0.154813,-5.10881 -0.0516,-0.15477 -0.103211,-0.23216 -0.154812,-0.23221 -0.10321,-0.0516 -0.309631,-0.0773 -0.61925,-0.0774 h -1.315903 c -0.722459,0.0516 -1.315905,0.0258 -1.780338,-0.0774 -1.702937,-0.25799 -2.812421,-1.23845 -3.328461,-2.94143 -0.567644,-1.54809 -0.619247,-3.89608 -0.154814,-7.04396 v -0.23223 c 2e-6,-0.20635 0.05161,-0.41278 0.154814,-0.61924 v -0.15481 c 0.05161,-0.36118 0.232218,-0.64501 0.541841,-0.85146 0.309624,-0.20637 0.645052,-0.28379 1.006279,-0.23223 0.361227,0.0516 0.645049,0.23227 0.851467,0.54185 3.302654,4e-5 8.41145,0.10325 15.326401,0.30961 6.966524,0.20648 12.255931,0.30969 15.868245,0.30962 2.838187,7e-5 4.876545,0.0774 6.11508,0.23222 3.199412,0.46451 5.211962,1.57399 6.037672,3.32847 0.15477,0.41288 0.25798,1.03214 0.30962,1.85774 0.10317,0.67091 0.15477,1.52238 0.15482,2.55442 -5e-5,1.90939 -0.0774,4.10256 -0.23222,6.57951 -0.20646,2.52863 -0.43868,4.69599 -0.69665,6.5021 -0.15486,0.98051 -0.30967,1.78037 -0.46444,2.39959 -0.20646,0.82569 -0.49028,1.41914 -0.85147,1.78034 -0.82571,0.8773 -2.47703,1.62556 -4.953987,2.24478 -1.290138,0.36127 -2.012593,0.56768 -2.167369,0.61925 l -0.77406,0.30962 c -0.103243,0.15484 -0.103243,0.30965 0,0.46443 0.309586,0.41285 0.903033,0.8773 1.780338,1.39331 0.464399,0.25804 1.393271,0.74829 2.786618,1.47073 0.516001,0.25804 0.90303,0.46445 1.16109,0.61923 0.4644,0.25805 0.79982,0.51607 1.00628,0.77408 0.4644,0.56766 0.82562,1.65135 1.08369,3.25104 0.10316,0.61927 0.0774,1.49655 -0.0774,2.63182 -5e-5,0.10315 -0.12906,1.13529 -0.38703,3.09624 -0.15486,1.1869 -0.23227,2.08996 -0.23222,2.7092 -0.0516,0.30965 -0.0516,0.56766 0,0.77407 0.15477,0 0.36118,-0.0258 0.61925,-0.0774 0.77401,-0.20641 1.67708,-0.59342 2.70921,-1.16108 0.98043,-0.51603 1.8577,-1.08366 2.63181,-1.70293 0.36117,-0.25801 0.645,-0.49024 0.85147,-0.69665 0.0515,-0.10325 0.10314,-0.15482 0.1548,-0.15482 0.15477,-0.77404 0.15477,-1.70292 0,-2.78661 -4e-5,-0.0516 -0.0516,-0.56764 -0.1548,-1.54813 -0.10326,-0.61923 -0.18066,-1.13526 -0.23223,-1.54811 -4e-5,-1.34171 0.41279,-2.37377 1.2385,-3.09626 0.92883,-0.72242 2.37374,-1.08365 4.33474,-1.08367 0.10315,2e-5 0.36117,-0.0258 0.77407,-0.0774 0.61919,-0.0516 1.03202,-0.0774 1.2385,-0.0774 0.51597,-0.0516 0.95461,-0.0516 1.31589,0 0.6192,0 1.08363,0.10325 1.39331,0.30962 0.30957,0.15484 0.56759,0.43865 0.77407,0.85147 0.10315,0.20643 0.18054,0.43867 0.23221,0.69665 0.10315,0.41285 0.18056,0.98049 0.23222,1.70293 0.15475,1.18693 0.23216,2.70923 0.23222,4.56697 -6e-5,1.59972 -0.0516,3.14784 -0.15481,4.64436 -0.10326,1.54812 -0.23228,2.55441 -0.38703,3.01884 -0.46449,1.13529 -1.39337,2.52858 -2.78662,4.17991 -1.59978,1.80616 -2.94149,2.86403 -4.02512,3.17366 -0.41288,0.1548 -1.62558,0.28383 -3.63808,0.38703 -2.01261,0.10325 -3.94776,0.20642 -5.80546,0.30962 -2.27062,0.0516 -4.231571,0.0774 -5.882862,0.0774 -0.877306,0 -1.599763,-0.0258 -2.167369,-0.0774 -0.670889,0 -1.135325,-0.0516 -1.39331,-0.15481 -0.619283,-0.15481 -1.393343,-0.56764 -2.322182,-1.23851 -0.722489,-0.56762 -1.238528,-0.90306 -1.548122,-1.00627 -0.206446,-0.0516 -0.464466,-0.0774 -0.77406,-0.0774 -0.722486,0.0516 -1.444943,-0.18059 -2.167369,-0.69665 -1.54815,-1.13527 -2.244803,-3.07042 -2.089965,-5.80544 -2.6e-5,-0.82565 0.103178,-1.90934 0.309624,-3.25105 0.257995,-1.80613 0.412807,-2.83822 0.464436,-3.09627 0.257994,-2.06412 0.103178,-3.43164 -0.464436,-4.1025 -0.670876,-0.92887 -2.322206,-1.21266 -4.953989,-0.85147 -0.464458,0.0516 -0.799883,0.12903 -1.006279,0.23223 -0.154831,0.0516 -0.25804,0.0774 -0.309624,0.0774 v 0.23222 c -0.05163,0.30964 -0.103232,0.72246 -0.154812,1.2385 -0.05163,1.03209 -0.129029,2.24477 -0.232217,3.63809 -0.05163,1.39331 -0.103232,2.60601 -0.154814,3.63808 v 1.2385 0.30961 l 0.07741,0.0774 c 0.05158,2e-5 0.309605,0.0258 0.77406,0.0774 0.722438,0 1.29008,0.10315 1.702934,0.30962 0.774038,0.36124 1.264275,1.03209 1.470717,2.01257 0.774036,2.88982 0.851441,5.10879 0.232216,6.65691 -0.567668,1.59972 -1.806163,2.5544 -3.715491,2.86404 -1.083702,0.1548 -2.73503,0.0773 -4.953987,-0.23224 -3.096255,-0.41282 -4.85079,-0.64504 -5.263613,-0.69665 -0.154821,0 -1.393317,0.0516 -3.715492,0.15481 -1.960957,0.0516 -3.380068,-0.12899 -4.257335,-0.54185 -0.722456,-0.30961 -1.238497,-1.00627 -1.548121,-2.08996 -0.154812,-0.67084 -0.232217,-1.4707 -0.232217,-2.39958 0.05161,-0.92886 0.180614,-1.75453 0.387029,-2.47701 0.309624,-0.92885 0.722456,-1.59969 1.238498,-2.01254 0.670851,-0.46443 1.573921,-0.72244 2.709213,-0.77405 1.186887,0 1.806135,-0.0258 1.857746,-0.0774 l 0.38703,-0.0774"
       style="font-style:normal;font-variant:normal;font-weight:500;font-stretch:normal;font-size:329.85540771px;line-height:100%;font-family:Cherokeehandlines;-inkscape-font-specification:'Cherokeehandlines Medium';text-align:center;letter-spacing:0px;word-spacing:0px;writing-mode:lr-tb;text-anchor:middle;fill:#d40000;fill-opacity:1;stroke:#000000;stroke-width:2.13333344;stroke-miterlimit:4;stroke-dasharray:none" />
    <path
       inkscape:connector-curvature="0"
       id="path3817"
       d="m 76.703822,236.51678 c -0.464456,-0.25799 -0.696672,-0.64503 -0.696655,-1.1611 -1.7e-5,-0.10315 -0.02582,-0.387 -0.07741,-0.85147 -1.6e-5,-0.51599 -0.02581,-0.92883 -0.07741,-1.2385 -1.6e-5,-0.56759 0.05158,-1.05783 0.154813,-1.4707 0.103189,-0.67082 0.36121,-1.18685 0.774059,-1.54812 0.361211,-0.30958 0.87725,-0.4902 1.548122,-0.54184 0.412812,-0.0515 0.877249,-0.0515 1.39331,0 0.361205,4e-5 0.79984,0.0516 1.315903,0.1548 0.464414,0.0516 0.722433,0.0774 0.77406,0.0774 h 1.006278 1.238498 c 1.186866,6e-5 2.064135,0.12907 2.631805,0.38703 1.496488,0.61932 2.683381,1.65138 3.560679,3.09625 0.928842,1.44496 1.54809,3.04468 1.857747,4.79918 0.309591,1.54814 0.309591,3.19949 0,4.95398 -0.258054,1.75458 -0.851498,3.17368 -1.780339,4.25735 -0.103242,0.10326 -0.283852,0.33546 -0.541843,0.69665 -0.309654,0.41286 -0.541874,0.74828 -0.696655,1.00628 -0.77409,0.8773 -1.496545,1.44493 -2.167369,1.70293 -1.135316,0.36125 -2.760842,0.41284 -4.876583,0.1548 -0.980498,-0.15478 -1.857766,-0.36119 -2.631806,-0.61923 -0.980498,-0.3096 -1.677151,-0.72245 -2.089964,-1.2385 -0.25804,-0.30959 -0.464455,-0.79984 -0.619247,-1.47072 -0.103232,-0.51602 -0.180633,-1.13526 -0.23222,-1.85774 -0.103221,-1.23846 -0.129026,-2.76079 -0.07741,-4.56697 0.05158,-1.70289 0.154796,-3.25101 0.309627,-4.64436 v -0.0774"
       style="font-style:normal;font-variant:normal;font-weight:500;font-stretch:normal;font-size:329.85540771px;line-height:100%;font-family:Cherokeehandlines;-inkscape-font-specification:'Cherokeehandlines Medium';text-align:center;letter-spacing:0px;word-spacing:0px;writing-mode:lr-tb;text-anchor:middle;fill:#ffffff;fill-opacity:1;stroke:#000000;stroke-width:2.13333344;stroke-miterlimit:4;stroke-dasharray:none;stroke-opacity:1" />
    <path
       inkscape:connector-curvature="0"
       id="path3812"
       d="m 79.645251,234.58163 c -0.103232,0.25806 -0.206436,1.03211 -0.309624,2.32217 -0.154833,1.34175 -0.25804,2.81246 -0.309624,4.41215 -0.05163,1.70297 -0.02582,3.14789 0.07741,4.33474 0.05158,0.61928 0.10319,1.10952 0.154812,1.47071 0.05158,0.15485 0.103189,0.28385 0.154814,0.38703 0.154791,0.10325 0.438613,0.23225 0.851465,0.38704 0.619229,0.20643 1.315881,0.36127 2.089964,0.46442 1.754514,0.25806 2.967208,0.25806 3.638085,0 0.257995,-0.10314 0.59342,-0.4128 1.006281,-0.92885 0.154784,-0.20639 0.387001,-0.49022 0.696653,-0.85147 0.257992,-0.4128 0.464407,-0.69663 0.61925,-0.85148 1.341674,-1.65129 1.754507,-3.99927 1.238495,-7.04395 -0.567673,-3.09619 -1.831972,-5.05716 -3.792896,-5.88286 -0.309652,-0.15476 -0.903096,-0.23218 -1.78034,-0.23222 h -1.161092 -1.161091 c -0.154833,4e-5 -0.49026,-0.0515 -1.006278,-0.15481 -0.464457,-0.0515 -0.825684,-0.0773 -1.083683,-0.0774 -0.412855,-0.0515 -0.74828,-0.0515 -1.00628,0 v 0.38701 c 0.154792,5e-5 0.309603,0.0516 0.464436,0.15484 0.361209,0.15485 0.593425,0.41287 0.696655,0.77404 0.10319,0.30967 0.07739,0.61929 -0.07741,0.92889"
       style="font-style:normal;font-variant:normal;font-weight:500;font-stretch:normal;font-size:329.85540771px;line-height:100%;font-family:Cherokeehandlines;-inkscape-font-specification:'Cherokeehandlines Medium';text-align:center;letter-spacing:0px;word-spacing:0px;writing-mode:lr-tb;text-anchor:middle;fill:#ffffff;fill-opacity:1;stroke:none;stroke-width:1.06666672" />
    <text
       xml:space="preserve"
       style="font-style:normal;font-variant:normal;font-weight:500;font-stretch:normal;font-size:12.80000019px;line-height:0%;font-family:CherokeeHandone;-inkscape-font-specification:'CherokeeHandone Medium';text-align:center;letter-spacing:0px;word-spacing:0px;writing-mode:lr-tb;text-anchor:middle;fill:#000000;fill-opacity:1;stroke:#000000;stroke-width:1.06666672;stroke-miterlimit:4;stroke-dasharray:none"
       x="188.52568"
       y="383.44684"
       id="text3941"><tspan
         sodipodi:role="line"
         id="tspan3943"
         x="188.52568"
         y="383.44684"
         style="font-style:normal;font-variant:normal;font-weight:500;font-stretch:normal;font-size:21.33333397px;line-height:100%;font-family:CherokeeHandone;-inkscape-font-specification:'CherokeeHandone Medium';text-align:center;writing-mode:lr-tb;text-anchor:middle;stroke-width:1.06666672;stroke-miterlimit:4;stroke-dasharray:none">ᏍᏆᏛᏛᎲᏍᎦ,</tspan><tspan
         sodipodi:role="line"
         x="188.52568"
         y="404.78018"
         id="tspan3945"
         style="font-style:normal;font-variant:normal;font-weight:500;font-stretch:normal;font-size:21.33333397px;line-height:100%;font-family:CherokeeHandone;-inkscape-font-specification:'CherokeeHandone Medium';text-align:center;writing-mode:lr-tb;text-anchor:middle;stroke-width:1.06666672;stroke-miterlimit:4;stroke-dasharray:none">&quot;ᏥᏯᏄᎵᏍ ᎦᏗᏟᏍᎩ?&quot;</tspan><tspan
         sodipodi:role="line"
         x="188.52568"
         y="426.11349"
         id="tspan3947"
         style="font-style:normal;font-variant:normal;font-weight:500;font-stretch:normal;font-size:21.33333397px;line-height:100%;font-family:CherokeeHandone;-inkscape-font-specification:'CherokeeHandone Medium';text-align:center;writing-mode:lr-tb;text-anchor:middle;stroke-width:1.06666672;stroke-miterlimit:4;stroke-dasharray:none">ᏔᎵᏊ ᎢᏯᏔᏬᏍᏔᏅ.</tspan><tspan
         sodipodi:role="line"
         x="188.52568"
         y="447.44684"
         id="tspan3949"
         style="font-style:normal;font-variant:normal;font-weight:500;font-stretch:normal;font-size:21.33333397px;line-height:100%;font-family:CherokeeHandone;-inkscape-font-specification:'CherokeeHandone Medium';text-align:center;writing-mode:lr-tb;text-anchor:middle;stroke-width:1.06666672;stroke-miterlimit:4;stroke-dasharray:none">ᎡᎶᎯ ᏓᎦᏕᏲᎵ!</tspan></text>
    <text
       id="text3951"
       y="607.38586"
       x="98.681885"
       style="font-style:normal;font-variant:normal;font-weight:500;font-stretch:normal;font-size:12.80000019px;line-height:0%;font-family:CherokeeHandone;-inkscape-font-specification:'CherokeeHandone Medium';text-align:center;letter-spacing:0px;word-spacing:0px;writing-mode:lr-tb;text-anchor:middle;fill:#000000;fill-opacity:1;stroke:#000000;stroke-width:1.06666672;stroke-miterlimit:4;stroke-dasharray:none"
       xml:space="preserve"><tspan
         y="607.38586"
         x="98.681885"
         sodipodi:role="line"
         id="tspan3970"
         style="font-style:normal;font-variant:normal;font-weight:500;font-stretch:normal;font-size:21.33333397px;line-height:100%;font-family:CherokeeHandone;-inkscape-font-specification:'CherokeeHandone Medium';text-align:center;writing-mode:lr-tb;text-anchor:middle;stroke-width:1.06666672;stroke-miterlimit:4;stroke-dasharray:none">Ꭽ!</tspan><tspan
         y="628.71918"
         x="98.681885"
         sodipodi:role="line"
         id="tspan3972"
         style="font-style:normal;font-variant:normal;font-weight:500;font-stretch:normal;font-size:21.33333397px;line-height:100%;font-family:CherokeeHandone;-inkscape-font-specification:'CherokeeHandone Medium';text-align:center;writing-mode:lr-tb;text-anchor:middle;stroke-width:1.06666672;stroke-miterlimit:4;stroke-dasharray:none">ᎠᏆᏜᏏᏛᎡ!</tspan></text>
    <text
       xml:space="preserve"
       style="font-style:normal;font-variant:normal;font-weight:500;font-stretch:normal;font-size:12.80000019px;line-height:0%;font-family:CherokeeHandone;-inkscape-font-specification:'CherokeeHandone Medium';text-align:center;letter-spacing:0px;word-spacing:0px;writing-mode:lr-tb;text-anchor:middle;fill:#000000;fill-opacity:1;stroke:#000000;stroke-width:1.06666672;stroke-miterlimit:4;stroke-dasharray:none"
       x="95.329506"
       y="797.80109"
       id="text3976"><tspan
         id="tspan3980"
         sodipodi:role="line"
         x="95.329506"
         y="797.80109"
         style="font-style:normal;font-variant:normal;font-weight:500;font-stretch:normal;font-size:21.33333397px;line-height:100%;font-family:CherokeeHandone;-inkscape-font-specification:'CherokeeHandone Medium';text-align:center;writing-mode:lr-tb;text-anchor:middle;stroke-width:1.06666672;stroke-miterlimit:4;stroke-dasharray:none">ᏱᎿᏛᏁ ᎯᎠ</tspan><tspan
         sodipodi:role="line"
         x="95.329506"
         y="819.1344"
         id="tspan3984"
         style="font-style:normal;font-variant:normal;font-weight:500;font-stretch:normal;font-size:21.33333397px;line-height:100%;font-family:CherokeeHandone;-inkscape-font-specification:'CherokeeHandone Medium';text-align:center;writing-mode:lr-tb;text-anchor:middle;stroke-width:1.06666672;stroke-miterlimit:4;stroke-dasharray:none">ᎤᏃᏍᏓ</tspan><tspan
         sodipodi:role="line"
         x="95.329506"
         y="840.46777"
         id="tspan3986"
         style="font-style:normal;font-variant:normal;font-weight:500;font-stretch:normal;font-size:21.33333397px;line-height:100%;font-family:CherokeeHandone;-inkscape-font-specification:'CherokeeHandone Medium';text-align:center;writing-mode:lr-tb;text-anchor:middle;stroke-width:1.06666672;stroke-miterlimit:4;stroke-dasharray:none">ᏣᏤᎵ ᏱᎩ.</tspan></text>
    <text
       id="text3988"
       y="901.72491"
       x="244.8457"
       style="font-style:normal;font-variant:normal;font-weight:500;font-stretch:normal;font-size:12.80000019px;line-height:0%;font-family:CherokeeHandone;-inkscape-font-specification:'CherokeeHandone Medium';text-align:center;letter-spacing:0px;word-spacing:0px;writing-mode:lr-tb;text-anchor:middle;fill:#000000;fill-opacity:1;stroke:#000000;stroke-width:1.06666672;stroke-miterlimit:4;stroke-dasharray:none"
       xml:space="preserve"><tspan
         id="tspan3994"
         y="901.72491"
         x="244.8457"
         sodipodi:role="line"
         style="font-style:normal;font-variant:normal;font-weight:500;font-stretch:normal;font-size:21.33333397px;line-height:100%;font-family:CherokeeHandone;-inkscape-font-specification:'CherokeeHandone Medium';text-align:center;writing-mode:lr-tb;text-anchor:middle;stroke-width:1.06666672;stroke-miterlimit:4;stroke-dasharray:none">ᎰᏩ!</tspan></text>
    <text
       xml:space="preserve"
       style="font-style:normal;font-variant:normal;font-weight:500;font-stretch:normal;font-size:12.80000019px;line-height:0%;font-family:CherokeeHandone;-inkscape-font-specification:'CherokeeHandone Medium';text-align:center;letter-spacing:0px;word-spacing:0px;writing-mode:lr-tb;text-anchor:middle;fill:#000000;fill-opacity:1;stroke:#000000;stroke-width:1.06666672;stroke-miterlimit:4;stroke-dasharray:none"
       x="227.07793"
       y="813.55627"
       id="text4001"><tspan
         sodipodi:role="line"
         id="tspan4003"
         x="227.07793"
         y="813.55627"
         style="font-style:normal;font-variant:normal;font-weight:500;font-stretch:normal;font-size:21.33333397px;line-height:100%;font-family:CherokeeHandone;-inkscape-font-specification:'CherokeeHandone Medium';text-align:center;writing-mode:lr-tb;text-anchor:middle;stroke-width:1.06666672;stroke-miterlimit:4;stroke-dasharray:none">Ꭳ!</tspan><tspan
         sodipodi:role="line"
         x="227.07793"
         y="834.88959"
         id="tspan4015"
         style="font-style:normal;font-variant:normal;font-weight:500;font-stretch:normal;font-size:21.33333397px;line-height:100%;font-family:CherokeeHandone;-inkscape-font-specification:'CherokeeHandone Medium';text-align:center;writing-mode:lr-tb;text-anchor:middle;stroke-width:1.06666672;stroke-miterlimit:4;stroke-dasharray:none">ᏱᏥᎶᎾᏍᏗ!</tspan></text>
    <text
       xml:space="preserve"
       style="font-style:normal;font-variant:normal;font-weight:500;font-stretch:normal;font-size:12.80000019px;line-height:0%;font-family:CherokeeHandone;-inkscape-font-specification:'CherokeeHandone Medium';text-align:center;letter-spacing:0px;word-spacing:0px;writing-mode:lr-tb;text-anchor:middle;fill:#000000;fill-opacity:1;stroke:#000000;stroke-width:1.06666672;stroke-miterlimit:4;stroke-dasharray:none"
       x="401.5535"
       y="804.35858"
       id="text4017"><tspan
         sodipodi:role="line"
         x="401.5535"
         y="804.35858"
         id="tspan4021"
         style="font-style:normal;font-variant:normal;font-weight:500;font-stretch:normal;font-size:21.33333397px;line-height:100%;font-family:CherokeeHandone;-inkscape-font-specification:'CherokeeHandone Medium';text-align:center;writing-mode:lr-tb;text-anchor:middle;stroke-width:1.06666672;stroke-miterlimit:4;stroke-dasharray:none">ᏃᏊ, ᏗᎧᎸᎬᏗᏜ ᏓᎦᎵᏘᏏ</tspan><tspan
         sodipodi:role="line"
         x="401.5535"
         y="825.69189"
         id="tspan4025"
         style="font-style:normal;font-variant:normal;font-weight:500;font-stretch:normal;font-size:21.33333397px;line-height:100%;font-family:CherokeeHandone;-inkscape-font-specification:'CherokeeHandone Medium';text-align:center;writing-mode:lr-tb;text-anchor:middle;stroke-width:1.06666672;stroke-miterlimit:4;stroke-dasharray:none">ᎾᎯᏳ  ᏭᏕᎵᎬ ᏗᏜ</tspan><tspan
         sodipodi:role="line"
         x="401.5535"
         y="847.02527"
         id="tspan4029"
         style="font-style:normal;font-variant:normal;font-weight:500;font-stretch:normal;font-size:21.33333397px;line-height:100%;font-family:CherokeeHandone;-inkscape-font-specification:'CherokeeHandone Medium';text-align:center;writing-mode:lr-tb;text-anchor:middle;stroke-width:1.06666672;stroke-miterlimit:4;stroke-dasharray:none">ᏓᏍᎩᎪᎯ!</tspan></text>
    <text
       xml:space="preserve"
       style="font-style:normal;font-variant:normal;font-weight:500;font-stretch:normal;font-size:12.80000019px;line-height:0%;font-family:CherokeeHandone;-inkscape-font-specification:'CherokeeHandone Medium';text-align:center;letter-spacing:0px;word-spacing:0px;writing-mode:lr-tb;text-anchor:middle;fill:#000000;fill-opacity:1;stroke:#000000;stroke-width:1.06666672;stroke-miterlimit:4;stroke-dasharray:none"
       x="369.55426"
       y="897.70209"
       id="text4047"><tspan
         sodipodi:role="line"
         id="tspan4049"
         x="369.55426"
         y="897.70209"
         style="font-style:normal;font-variant:normal;font-weight:500;font-stretch:normal;font-size:21.33333397px;line-height:100%;font-family:CherokeeHandone;-inkscape-font-specification:'CherokeeHandone Medium';text-align:center;writing-mode:lr-tb;text-anchor:middle;stroke-width:1.06666672;stroke-miterlimit:4;stroke-dasharray:none">ᎰᏩ!</tspan></text>
  </g>
</svg>
